<svg xmlns="http://www.w3.org/2000/svg" xmlns:xlink="http://www.w3.org/1999/xlink" width="145" height="105" viewBox="0 0 145 105"><defs><path id="c" d="M.227.556h150.857v557.025H.227z"/><path id="e" d="M.29.437h67.757v133.106H.289z"/><path id="g" d="M.515.556h360.444v848.422H.515z"/><path id="i" d="M.522.556h848.625v848.422H.522z"/><path id="k" d="M.522.556h848.625v848.422H.522z"/><path id="m" d="M.522 848.978h848.625V.556H.522z"/><rect id="a" width="144" height="104" x=".775" y=".123" rx="7"/></defs><g fill="none" fill-rule="evenodd"><mask id="b" fill="#fff"><use xlink:href="#a"/></mask><use fill="#D8D8D8" xlink:href="#a"/><g mask="url(#b)"><path fill="#DFE9E9" d="M-670.478 424.79h848.625v-848.42h-848.625z"/><g transform="translate(-671 -424.184)"><g transform="translate(698.063)"><mask id="d" fill="#fff"><use xlink:href="#c"/></mask><path fill="#A9DAA6" d="M80.676 159.953c3.572 7.624 7.273 16.62 3.394 24.095-2.8 5.4-8.763 8.232-14.35 10.619-18.215 7.775-37.274 15.052-51.643 28.71-14.369 13.653-22.899 35.778-14.58 53.79 6.058 13.12 19.272 21.084 31.284 29.08 32.065 21.334 60.423 48.254 83.415 79.194 5.713 7.688 11.183 15.712 18.492 21.898 12.672 10.725 29.556 14.869 43.726 23.506 10 6.098 18.489 14.336 27.583 21.723 25.294 20.548 55.185 34.454 84.74 48.149 35.754 16.571 71.51 33.146 107.268 49.715 12.513 5.799 28.276 11.295 39.061 2.69 6.866-5.48 9.004-14.864 10.526-23.529 14.523-82.693 12.59-167.292 10.613-251.236-2.458-104.25-4.913-208.496-7.374-312.745-.225-9.587-.764-20.025-7.044-27.256-4.89-5.632-12.332-8.18-19.414-10.493-45.5-14.87-91.252-29.802-138.559-37.06-77.082-11.826-156.87-2.712-230.462 23.146C36.22-78.623 13.38-68.177 5.717-45.264-.869-25.572 9.534-15.23 18.422 1.161c26.636 49.12 38.364 107.78 62.254 158.792" mask="url(#d)"/></g><path fill="#A9DAA6" d="M774.888 338.83c-9.786 5.933-19.92 11.998-31.245 13.613-4.098.583-8.306.574-12.284 1.721-10.802 3.117-17.347 13.698-25.456 21.5-11.322 10.899-26.427 16.753-41.1 22.339-.31 4.888-4.463 8.525-8.287 11.574-10.473 8.34-20.95 16.678-31.424 25.017-16.808 13.384-32.926 26.958-45.672 44.422-6.682 9.152-10.15 14.043-20.676 6.736-6.089-4.229-10.458-15.543-17.51-17.44-4.007-1.08-8.751 1.476-12.211-.815-.778-.515-1.457-1.26-2.371-1.412-1.544-.263-2.762 1.24-3.61 2.564-3.54 5.537-6.705 12.138-10.962 17.13-2.433 2.854-24.618 22.423-26.022 27.004-5.339 17.448.15 32.145-1.46 50.323-.284 3.251 25.788 32.814 27.126 35.787 2.957 6.565-4.262-36.285 2.91-35.875 2.141.123 4.353.235 6.362-.509 3.178-1.18 5.207-4.223 7.189-6.982 11.998-16.73 30.003-29.027 49.921-34.098 9.841-2.507 23.154-28.48 28.473-37.913 4.046-7.182 4.985-15.88 9.523-22.757.893-1.355 1.95-2.652 3.346-3.476 2.458-1.448 5.508-1.207 8.324-1.672 18.82-3.104 19.42-29.613 36.34-35.256 11.67-3.892 32.273 1.853 37.732-14.005.78-2.258.914-4.855 2.49-6.645 1.96-2.236 5.312-2.337 8.235-2.865 15.574-2.806 25.035-21.074 40.707-23.263 5.883-.821 12.44.667 17.402-2.603 2.71-1.787 4.424-4.716 6.658-7.08 6.71-7.122 18.56-9.793 21.599-19.106 2.743-8.419-4.287-19.43-11.328-22.932-.214 7.94-6.411 13.15-12.719 16.974"/><g transform="translate(781.1 411.439)"><mask id="f" fill="#fff"><use xlink:href="#e"/></mask><path fill="#A9DAA6" d="M109.71 61.566a430.739 430.739 0 01-68.591-49.458C36.734 8.238 32.307 4.202 26.9 1.977 21.494-.25 14.784-.303 10.276 3.422c-5.1 4.212-5.88 11.612-6.28 18.224C2.796 41.403 1.6 61.161.404 80.916c-.153 2.54-.296 5.164.578 7.55.939 2.556 2.934 4.552 4.914 6.415 18.363 17.259 40.528 30.434 64.443 38.305 4.903 1.615 12.606-2.58 16.54-5.928 3.937-3.35 6.803-7.753 9.609-12.094 8.275-12.792 16.55-25.581 24.826-38.37.756-1.164 1.541-2.458 1.38-3.837-.15-1.303-1.114-2.351-2.075-3.252-5.64-5.298-4.222-4.253-10.91-8.14" mask="url(#f)"/></g><g transform="translate(488.188)"><mask id="h" fill="#fff"><use xlink:href="#g"/></mask><path fill="#77CAE5" d="M67.52 882.034c-10.436-11.552-6.04-29.514-2.996-44.794 7.167-35.93 2.897-74.062-12.04-107.503-3.043-6.818-6.6-13.805-6.304-21.268.345-8.711 5.94-17.223 3.611-25.62-1.908-6.877-8.489-11.202-12.86-16.837-11.597-14.948-6.415-36.446-9.908-55.057-2.855-15.2-13.605-26.963-17.355-41.438-3.718-14.366 2.346-31.707 4.963-46.56.742-4.214 1.7-8.807 5.028-11.483 3.49-2.811 8.437-2.6 12.9-2.247l43.93 3.465c5.175.407 10.551.788 15.388-1.092 10.942-4.242 14.537-17.497 19.442-28.176 6.52-14.199 17.38-25.855 28.057-37.246 12.833-13.695 37.254-28.972 53.069-39.063 12.551-8.008 15.13-12 28.314-18.911 8.437-4.423 16.54-9.45 24.635-14.47 16.378-10.162 37.73-12.39 54.11-22.552 5.929-3.678 9.972-18.93 11.85-25.66 3.6-12.883-13.003-26.819-2.563-35.152 2.31-1.845 5.3-2.535 8.098-3.5 18.057-6.23 32.442-23.012 41.766-39.723 3.408-6.106 3.38-14.23 1.705-21.022-1.418-5.747-5.381-15.293-9.488-19.55-26.636-27.597-30.996-64.329-30.764-102.727.113-17.986-.08-38.107-12.652-50.94-5.007-5.113-11.602-8.553-16.149-14.079-5.86-7.121-7.55-16.7-9.036-25.808-2.93-17.96-5.859-35.918-8.79-53.875-1.588-9.724-3.012-20.384 2.009-28.852-6.313 2.507-14.227 5.102-20.964 5.934-6.734.835-13.931.465-17.591 6.196 4.511 36.627 9.685 75.003 31.311 104.87 13.617 18.805 33.636 34.132 39.617 56.582 5.081 19.076-1.075 40.163 5.834 58.65 10.619 28.414 49.757 45.46 45.963 75.565-2.65 21.002-25.22 32.453-44.852 40.253-5.354 2.127-11.333 4.894-13.055 10.406-2.283 7.301 4.183 14.1 6.99 21.218 5.961 15.121-5.58 31.961-19.508 40.295-13.929 8.336-30.43 11.68-44.145 20.367-13.718 8.684-67.299 43.582-88.635 56.3-5.87 3.5-22.625 13.446-27.052 18.662-14.722 17.366-17.227 30.098-31.947 47.463-10.161 11.984-28.554 24.52-39.316 13.068-8.798-9.357-51.098-23.408-50.717 7.442.175 14.505-6.833 28.452-6.181 42.943.46 10.149 4.648 19.752 6.074 29.81 4.336 30.628-16.636 64.543-.78 91.08 3.723 6.234 9.46 11.968 9.513 19.231.112 16.61-17.975 33.034-7.129 50.517 3.17 5.107 8.377 8.525 12.667 12.734 4.287 4.21 7.878 10.165 6.356 15.986-1.141 4.355-4.84 7.486-7.175 11.334-7.134 11.738-.498 26.632 5.21 39.128a268.53 268.53 0 0118.782 57.61c7.123-1.636 15.63-.262 22.76-1.904" mask="url(#h)"/></g><mask id="j" fill="#fff"><use xlink:href="#i"/></mask><path fill="#F7F7F7" d="M1081.224 685.599c-2.677 3.996-6.028 9.001-9.866 14.718l-17.955-14.751 9.077-11.938a1.044 1.044 0 00-.826-1.675c-.315 0-.625.14-.83.41l-17.851 23.477-12.453-9.472 17.44-23.501a1.048 1.048 0 00-.213-1.46 1.044 1.044 0 00-1.459.214l-17.427 23.485-12.592-9.576c3.857-4.453 7.59-8.766 11.076-12.787 10.397-12 18.146-20.945 20.419-23.665 7.996 3.804 39.669 23.31 44.465 26.27-.95 3.879-1.974 6.846-3.072 8.444-1.117 1.628-3.975 5.898-7.933 11.807zm-19.595-71.629c-6.37 10.173-12.19 19.328-14.421 22.431-2.858-2.274-9.581-11.965-17.652-24.593a671.1 671.1 0 016.54-15.532l25.533 17.694zm-45.36-19.522l-40.515 30.404-40.483-39.189 49.489-36.832 10.81 10.788c2.116 3.66 10.896 18.77 20.699 34.83zm-94.192-19.631l10.832 11.462c.005.005.014.008.022.013.005.006.005.014.01.02l41.124 39.804-40.36 30.286-28.938-24.694-22.984-25.423 40.294-31.468zm-2.089-1.013l-39.584 30.916c-23.702-27.859-58.498-42.005-103.434-42.005v-9.588c37.18.26 72.618.477 79.743.405l28.438 9.111h.002l34.835 11.161zm-34.898-13.37l-24.607-7.884c6.428-3.002 15.727-12.611 25.171-23.928l16.833 10.591-17.397 21.222zm-121.613-9.493c-6.502-.047-12.957-.093-19.226-.143-4.59-8.415-15.31-28.23-16.11-30.532-.668-1.902-.383-18.235-.016-29.454l35.352 30.28v29.849zm1.226-31.542l-64.881-55.572 76.053-76.068 16.595 19.27c-6.5 5.945-39.037 35.902-41.044 41.598-1.5 4.272 14.558 18.878 42.807 42.67 4.673 3.935 8.423 7.094 9.466 8.136-1.44 2.795-20.627 12.196-38.996 19.966zm9.146-132.562l-30.775 30.781-14.95-14.99c3.798-4.335 8.09-9.403 11.507-13.44 2.252-2.666 4.035-4.77 4.908-5.756 1.484-1.554 16 .517 29.31 3.405zm-50.389 20.991a219.704 219.704 0 003.282-3.634l14.857 14.9-28.941 28.941c-1.87-1.946-16-16.686-18.204-19.812-1.865-2.64 3.515-10.676 9.044-14.976 2.185-1.7 4.75-1.595 7.712-1.478 3.879.156 8.278.332 12.25-3.94zm-15.779 65.477l18.418 15.772c-.161 4.65-.95 28.937.077 31.879.911 2.613 12.24 23.482 15.694 29.826-5.223-.038-10.307-.08-15.158-.118l-20.983-33.997 1.952-43.362zm-27.917 50.546l24.419-5.72 20.071 32.514c-24.317-.186-42.325-.334-42.861-.337a1.057 1.057 0 00-.504.126c-.2.11-8.765 4.76-19.554 10.091l-5.436-36.644h23.63a.93.93 0 00.235-.03zm-25.943.225l5.551 37.412c-4.752 2.327-9.844 4.738-14.796 6.927l-10.651-40.352 19.896-3.987zm-54.367 9.253l32.418-4.899 10.777 40.828c-5.135 2.228-10.041 4.163-14.153 5.458-.027.01-.055.013-.082.027-3.348 1.048-6.162 1.67-8.138 1.67-6.883 0-23.524.265-38.876.976-.498.025-.966.047-1.445.069l-1.506-25.639 21.005-18.49zm-16.252 11.53l-6.51 5.729a1.06 1.06 0 00-.353.848l1.535 26.126c-26.307 1.363-27.353 3.172-27.862 4.059-.556.974-5.08.843-9.075.728-1.905-.055-3.986-.115-6.181-.11-.567-7.32-.78-15.51-.145-16.637 1.22-1.38 8.407-13.32 10.679-17.108 5.598 4.231 7.101 4.291 8.018 3.799.906-.482 2.718-2.45 6.116-6.172 3.575-3.922 11.875-13.025 13.96-13.025.017 0 .036 0 .053.003 2.206 2.436 7.884 9.434 9.765 11.76zm-66.136 42.068c8.079-2.942 17.082-2.687 23.808-2.493 6.097.18 9.773.285 10.948-1.779 1.368-1.335 13.041-2.37 27.093-3.079.04.003.079.022.123.017.033 0 .063-.02.098-.028 13.997-.698 30.305-1.067 41.14-1.067 1.9 0 4.492-.526 7.52-1.412v17.439l-26.182 1.078h-21.467a1.04 1.04 0 00-1.04 1.043v34.487c-9.932-4.198-23.918-10.288-25.293-11.388-.692-.558-2.74-4.625-4.388-7.893-3.706-7.37-6.288-12.27-8.264-13.214-.441-.213-1.079-.306-1.859-.306-4.61 0-14.202 3.23-17.933 4.548-1.977-6.858-3.701-13.583-4.304-15.953zm4.887 17.962c7.897-2.808 16.677-5.15 18.314-4.37 1.483.711 4.987 7.668 7.303 12.272 2.489 4.945 3.945 7.78 4.944 8.582 2.01 1.607 22.138 10.143 26.592 12.02v12.34l-6.332 14.92c-2.52-1.454-8.538-3.832-19.345-7.984-8.202-3.153-19.314-7.42-21.142-8.86.353-3.568-1.344-18.169-4.876-23.804-1.462-2.332-3.534-8.594-5.458-15.116zm125.594-11.182l-17.668.728V576.44c3.95-1.284 8.497-3.074 13.235-5.11l4.433 22.377zm2.439 1.603l22.595-10.235c-1.114 5.799-4.26 22.351-4.44 24.62-.2 2.482 2.236 26.887 2.863 33.127h-17.282l-1.623-36.778a1.007 1.007 0 00-.022-.159l-2.091-10.575zm20.892 24.2c-.446-5.07-.725-8.868-.662-9.65.161-2.023 3.077-17.484 4.684-25.84l9.772-4.425h22.84l2.959 39.761h-20.756l-18.837.153zm41.865 1.932h19.08l3.68 38.036-18.815.805-3.945-38.841zm24.843 37.949l-3.671-37.95h26.813c.126 6.046.688 21.132 3.11 23.215.006.008.014.01.02.019a.06.06 0 01.013.008c.898.73 3.277 1.095 8.497 1.84 9.105 1.29 25.678 3.653 27.208 10.218l-61.99 2.65zm64.197 25.14v-25.819c30.454-1.798 49.19-25.652 52.957-30.913l25.237 23.463c.402.367 25.486 23.266 45.05 41.236-11.896 20.22-25.91 40.9-29.077 40.938h-.025c-5.576 0-37.769-22.809-39.548-25.707-1.238-2.012-.843-21.306.153-38.445a1.043 1.043 0 00-.98-1.1l-.06-.003a1.04 1.04 0 00-1.038.983c-.35 6.01-1.984 36.178.154 39.66 2.288 3.727 35.144 26.697 41.339 26.697h.03c2.524-.03 7.728-6.349 13.219-14.18l27.23 58.605c-4.391 7.931-8.29 14.834-10.41 18.101a1668.317 1668.317 0 01-31.09-17.507c-43.127-24.85-81.77-49.203-85.01-52.802-6.593-7.302-8.115-42.848-8.131-43.207zm124.81 116.201C947.18 811.97 968.566 822.89 980.866 827c-9.502 9.139-27.307 38.407-38.402 57.411l-100.028-47.974c18.174-3.774 75.858-27.138 84.159-35.705zm56.054 24.684c-9.962-3.12-28.865-12.217-54.8-26.37 3.209-4.978 10.055-17.436 16.694-29.514 6.02-10.942 12.209-22.204 15.319-27.201l23.977 31.293-10.022 13.18a1.05 1.05 0 00.198 1.465 1.04 1.04 0 001.459-.2l9.68-12.732 18.217 23.775c-9.65 13.334-17.268 23.22-20.722 26.304zm69.56-96.701c-15.65 23.09-33.568 49.206-47.567 68.632l-18.18-23.729 44.903-59.063 20.843 14.16zm-22.933-40.672l12.437 9.458-56.568 74.404-9.195-12.004 53.326-71.858zm-14.371-10.934l12.715 9.672-52.99 71.402-13.556-17.691c4.734-6.514 31.112-37.131 53.83-63.383zm-77.23 100.579l-27.102-58.33c6.559-9.56 13.228-20.68 16.028-25.42 10.682 9.814 19.417 17.882 21.032 19.5.55.553 1.24.805 2.004.728 2.795-.28 6.036-4.973 11.084-12.606 3.789-5.723 8.506-12.841 11.106-13.18a.858.858 0 01.753.24c4.82 4.3 13.433 13.46 15.823 16.022-14.895 17.343-27.307 32.015-29.486 35.297-2.79 4.204-9.302 16.046-16.195 28.586-1.692 3.076-3.394 6.174-5.048 9.163zM776.97 564.805c44.213.003 78.479 13.863 101.788 41.198l-24.213 18.909c-3.192-2.32-18.02-13.172-34.73-26.383-17.06-13.49-38.492-19.637-42.845-20.786v-12.938zm-16.26 54.551h-26.995l-2.092-21.632c.039.006.066.02.104.02h28.982v21.612zm2.093 1.733l28.769-11.982 7.769 14.781-34.495 18.614c-1.068-2.595-1.867-12.494-2.043-21.413zm48.618-25.984l-10.802 26.739-7.646-14.552a1.039 1.039 0 00-1.319-.476l-28.864 12.017v-21.771l13.542-17.333c3.392.893 19.781 5.51 35.09 15.376zm-81.55-15.51h43.924l-12.555 16.066h-29.513c-.104 0-.2.027-.295.057l-1.56-16.123zm42.79 64.86c-1.919-.273-3.983-.566-5.475-.848l34.041-18.367h.003l.005-.005a.979.979 0 00.296-.244c.03-.03.044-.07.066-.11.038-.054.084-.109.112-.172l11.486-28.435a88.48 88.48 0 015.33 3.891 1184.225 1184.225 0 0034.61 26.302c-3.347 4.71-21.618 28.383-51.454 30.16-1.366-8.236-17.908-10.592-29.02-12.171zm-60.104-25.099l-2.957-39.76h18.18l3.843 39.76h-19.066zm-52.413-55.905l12.316 19.385-22.893 10.372-4.498-22.726c5.053-2.22 10.238-4.667 15.075-7.031zm65.04-10.71l2.393 24.769h-43.129c-.148 0-.296.03-.433.09l-9.638 4.371-12.352-19.443a629.599 629.599 0 0019.623-10.131c2.414.022 20.164.164 43.537.344zm40.19.302c3.17.021 6.346.046 9.516.068v24.399h-45.221l-2.393-24.752c5.067.038 10.367.08 15.826.12.32.263.777.323 1.16.113.05-.028.077-.072.12-.102 6.283.044 12.752.093 19.265.143.186.292.498.498.87.498.364 0 .674-.2.857-.487zm210.109 74.617l37.922 47.999a9536.25 9536.25 0 00-23.638 27.393c-2.609-2.795-11.024-11.725-15.804-15.992a2.943 2.943 0 00-2.406-.75c-3.542.46-7.928 7.086-12.57 14.098-3.39 5.118-7.605 11.486-9.563 11.683-.112.014-.2-.005-.323-.128-4.632-4.645-65.144-59.888-67.715-62.236l-25.215-23.441 23.967-18.717 23.132 25.59c.03.032.063.062.096.092l29.625 25.278c.37.317.909.334 1.298.04l41.194-30.91zm70.463 10.34c-2.538 3.024-10.441 12.143-20.176 23.375l-10.98 12.68-37.643-47.646 40.214-30.174c11.27 18.406 23.6 37.536 28.585 41.765zm16.63 75.37c-2.929 4.346-6.014 8.91-9.2 13.618l-20.748-14.095 10.742-14.13 19.206 14.606zm1.166-1.73l-19.11-14.538 7.509-9.875 18.048 14.831c-2.031 3.024-4.191 6.23-6.447 9.582zM464.241 576.807l-10.84-5.042a1.04 1.04 0 00-1.45.706l-14.256 60.167c-4.922.008-30.485.041-35.886 0-3.942-.03-14.883-10.988-21.42-17.538-2.864-2.865-5.122-5.128-6.519-6.283-3.249-2.685-1.5-19.873.362-30.078a1.041 1.041 0 10-2.048-.375c-.515 2.824-4.89 27.721.364 32.062 1.314 1.092 3.657 3.435 6.368 6.15 9.893 9.91 18.442 18.112 22.877 18.148 5.25.04 29.48.01 35.407.002l-20.496 86.52c-15.61-3.457-35.114-9.004-39.642-10.307 2.412-9.442 7.145-31.744 7.194-31.977a1.042 1.042 0 00-1.018-1.259 1.04 1.04 0 00-1.015.826c-.05.23-4.761 22.423-7.165 31.844-6.069-1.678-36.28-9.995-42.918-11.183a12.957 12.957 0 00-2.24-.175c-8.412 0-24.037 5.679-24.76 5.941a1.044 1.044 0 10.712 1.962c.189-.068 19.017-6.91 25.924-5.675 6.474 1.16 36.937 9.54 42.776 11.155-1.738 7.764-1.347 20.318-1.166 24.281l-10.4-1.078c-5.067-1.437-79.921-22.58-126.32-32.91l4.414-25.522 41.829 4.147a1.033 1.033 0 001.139-.936 1.046 1.046 0 00-.934-1.142l-41.854-4.149v-1.54c0-1.443.614-2.822 1.679-3.788a5.075 5.075 0 013.922-1.292l20.825 2.096a1.044 1.044 0 00.21-2.077l-20.827-2.096a7.8 7.8 0 00-.714-.033 7.18 7.18 0 00-4.813 1.855 7.207 7.207 0 00-2.362 5.334v1.336l-40.898-4.053-4.191-18.87-5.152-31.68c7.01-2.518 16.69-5.972 25.44-9.056l.005-.003c10.66-3.757 19.937-6.968 21.3-7.258.75-.159 1.894-.495 3.34-.922 4.632-1.369 13.25-3.914 16.98-2.488 1.545.589 3.688 1.648 6.17 2.88 5.668 2.802 12.752 6.272 17.05 6.212h.058c.84 0 2.009.35 3.38.947.028.008.047.027.074.035.006 0 .011-.002.017 0 6.088 2.672 16.146 10.067 20.254 13.301a1.036 1.036 0 001.46-.177 1.044 1.044 0 00-.176-1.465c-1.522-1.198-12.496-9.748-20.04-13.243 3.21-11.645 7.199-24.043 8.494-25.168 2.576-1.382 9.575-15.409 11.552-20.379a1864.32 1864.32 0 0119.932 5.32 1.04 1.04 0 001.278-.733 1.04 1.04 0 00-.73-1.278c-.121-.033-8.72-2.38-19.804-5.28 1.497-4.945 4.544-17.559 5.437-21.292a41031.37 41031.37 0 0022.447 5.758 1.038 1.038 0 001.265-.752 1.045 1.045 0 00-.753-1.27c-.293-.074-9.611-2.463-22.382-5.745l9.193-27.103 23.214 6.823a1.042 1.042 0 001.292-.709 1.043 1.043 0 00-.706-1.294l-23.132-6.798 4.153-12.24a1.05 1.05 0 00-.06-.812 1.053 1.053 0 00-.628-.523c-5.026-1.514-18.57-5.816-20.832-7.488-1.1-1.03 1.054-10.047 4.637-19.563l22.724 7.455a1.036 1.036 0 001.287-.597l11.445-28.047 23.688 7.288a1.04 1.04 0 001.3-.692 1.041 1.041 0 00-.69-1.303l-23.506-7.23 9.168-22.473 24.226 9.344a1.047 1.047 0 001.347-.6 1.046 1.046 0 00-.597-1.349l-14.48-5.583c.974-4.061 4.401-18.413 4.573-20.228.167-1.738-2.367-3.295-11.793-7.244-1.557-.654-2.901-1.218-3.334-1.467-.912-.58-4.848-6.325-8.661-12.308 15.696 6.019 36.813 14.872 47.175 19.314a1.037 1.037 0 001.366-.547 1.041 1.041 0 00-.548-1.369c-1.689-.725-29.578-12.663-49-20.006l35.882-58.404 30.767-35.702c7.717 7.6 18.782 18.282 21.739 21.134l-29.374 34.142a1.047 1.047 0 00.11 1.472 1.04 1.04 0 001.467-.11l30.017-34.891a1.047 1.047 0 00-.069-1.434c-.191-.187-13.654-13.16-22.502-21.87l13.441-14.481h21.687c.287 0 .566-.12.76-.334l5.298-5.7 32.349 30.435a1.04 1.04 0 001.473-.046 1.045 1.045 0 00-.05-1.475L454.45 263.17l11.5-12.376c15.593-1.618 40.616-3.933 43-3.391.63.38 2.708 2.072 5.388 4.321l-11.322 12.746a1.049 1.049 0 00.085 1.475c.43.383 1.086.345 1.47-.088l11.36-12.789c3.658 3.096 8.035 6.875 11.448 9.856l28.432 25.2-23.373 23.827-21.336 25.642c-11.508-10.195-21.48-19.073-21.708-19.273a1.034 1.034 0 00-.693-.263c-.287 0-.572.118-.777.348a1.049 1.049 0 00.087 1.475c.912.81 10.625 9.453 21.755 19.317l-15.88 19.086-22.18-19.82a1.042 1.042 0 00-1.47.082 1.043 1.043 0 00.086 1.473l22.231 19.87-27.898 33.528c.003-.005-23.26 27.73-28.757 34.301l-24.846-20.26a1.023 1.023 0 00-.654-.236c-.304 0-.605.131-.808.386a1.041 1.041 0 00.148 1.464l24.925 20.33c-2.316 4.211-7.191 18.95-11.837 33.846-5.773-2.72-23.88-11.008-30.222-11.008-.556 0-1.021.066-1.38.203-.7.265-1.018.728-1.16 1.067-1.651 3.916-11.785 40.516-12.218 42.07l-11.273 36.456a1.042 1.042 0 001.99.615l11.282-36.482c.112-.408 10.419-37.618 12.108-41.775 2.039-1.193 17.051 4.625 30.246 10.863-4.782 15.413-9.184 30.483-10.115 33.68L400.807 535.4c-.17.55.137 1.136.688 1.305.55.17 1.13-.137 1.3-.687l11.281-36.482a2034.538 2034.538 0 0110.06-33.466c5.33 2.036 27.562 10.496 33.483 12.445l-11.24 23.632a.787.787 0 00-.058.14L435.04 538.77a1.047 1.047 0 00.736 1.319l24.438 6.32 4.027 30.398zm24.344-163.792c-.172.183-16.772 18.074-18.286 19.5-.02.019-.047.063-.066.093-.016.016-.04.024-.057.044-.017.024-.022.054-.036.073-1.837 3.016-8.642 30.667-11.815 43.831-4.84-1.582-23.099-8.479-33.57-12.475 5.404-17.307 10.424-32.259 12.075-34.237 3.942-4.716 29.42-35.09 29.42-35.09l27.854-33.48 23.36 20.875-28.879 30.866zm31.624-30.754l17.367-18.564c3.482 3.03 5.96 5.15 6.786 5.783 3.003 2.296 9.258 20.786 12.73 32.653.07.255.24.47.467.602l22.91 13.635-11.062 25.579a15908.03 15908.03 0 01-24.744-11.457l-24.454-48.231zm51.093 60.56l11.141-25.764 11.553 1.185 19.474 21.911a254.558 254.558 0 01-6.863 5.05c-.575.408-1.306.999-2.149 1.688-3.02 2.455-8.634 7.023-11.626 5.767-1.91-.805-11.429-5.175-21.53-9.836zm43.827-3.938l-19.587-22.037v-27.171c.058-1.171 3.874-7.587 7.38-12.855.047-.068 4.756-7.067 8.49-12.212 1.74-2.392 8.869 1.7 13.588 4.41 4.203 2.416 6.283 3.554 7.613 3.174a1.53 1.53 0 00.942-.753c.887-1.658 5.18-7.19 7.958-10.673 2.795 4.332 12.37 19.237 17.008 27.267a10.943 10.943 0 01-1.84-.684c-6.764-3.317-16.45-6.566-24.185-3.222-4.53 1.957-7.77 5.948-9.62 11.856-.473 1.084-3.504 8.367-.348 11.837.772.843 1.944 1.87 3.302 3.052 3.427 2.983 8.604 7.496 8.114 10.542-.41 2.578-10.132 10.78-18.815 17.47zm46.028-50.426c-4.52-8.085-16-25.893-18.294-29.44l15.349-21.167c2.869 5.085 12.543 22.045 15.308 24.648 2.705 2.54 20.296 5.523 27.838 6.705l-34.564 18.017c-1.752.914-3.701 1.314-5.637 1.237zm43.264-20.898c-10.477-1.544-27.405-4.637-29.475-6.583-2.39-2.247-11.65-18.317-15.41-25.017l22.218-34.52c.022-.033.041-.068.06-.104l8.799-17.902c5.475 3.545 32.259 20.932 35.39 23.726 2.494 2.225.575 10.066-.293 12.639-.038.129-2.989 9.8-6.986 20.409-7.197 19.116-11.714 25.469-14.303 27.352zm-145.446 33.594c-1.33-4.507-8.996-30.004-13.351-33.332-.794-.607-3.211-2.68-6.622-5.646l22.146-23.674 21.744-26.424 57.255 47.06c-1.768 2.214-6.852 8.646-8.264 11.03-.986-.164-3.775-1.766-5.848-2.956-6-3.448-13.468-7.743-16.307-3.829-3.756 5.175-8.486 12.206-8.536 12.275-1.815 2.731-7.733 11.796-7.733 14.018v26.413l-11.336-1.16-8.563-5.093c1.484-3.553 7.285-17.368 9.113-20.3 2.313-3.71.37-14.242.14-15.43a1.043 1.043 0 00-1.221-.826 1.04 1.04 0 00-.824 1.22c.578 3.008 1.733 11.372.14 13.928-1.892 3.035-7.493 16.35-9.155 20.332l-12.778-7.606zm-46.313-62.18l21.317-25.623 23.392-23.843 23.936 21.216-21.722 26.402-22.154 23.679c-6.57-5.736-15.998-14.062-24.77-21.832zm6.225 41.651l-23.447-20.953 15.883-19.092c8.73 7.729 18.103 16.005 24.684 21.75l-17.12 18.295zM697.183 265.34l-7.285 14.826-22.869-22.5a1.037 1.037 0 00-1.473.016c-.4.408-.394 1.07.017 1.476l23.354 22.978-8.955 18.222-21.88 34-33.716-28.773a1.032 1.032 0 00-.673-.249c-.293 0-.589.126-.794.367a1.046 1.046 0 00.118 1.47l33.887 28.92-15.505 21.383-57.988-47.665-24.589-21.796 40.737-41.523 38.722-33.026 40.197 31.154 18.695 20.72zm1.71-1.218l-18.92-20.972a1.159 1.159 0 00-.138-.123l-40.939-31.728a1.032 1.032 0 00-.638-.217c-.238 0-.479.082-.676.247l-10.501 8.96-38.29-30.404a1.04 1.04 0 00-1.462.17 1.044 1.044 0 00.17 1.467l37.964 30.146-27.312 23.3-18.415 18.768-30.542-26.457a1.045 1.045 0 00-1.467.107 1.05 1.05 0 00.106 1.475l30.438 26.367-20.996 21.408-28.522-25.28c-1.733-1.511-16.929-14.75-18.859-15.817-.298-.164-1.224-.235-2.633-.235-7.48 0-28.596 2.069-41.917 3.456-.25.028-.482.143-.654.326l-11.752 12.65-31.558-30.292 9.816-13.04c8.525-11.744 28.219-39.42 27.154-43.07-1.016-3.473-13.997-25.237-16.182-28.882l.025-.389c.296-4.321.526-7.734 5.196-8.87 4.377-1.065 20.43-6.615 24.832-12.844 2.986 1.316 13.802 7.573 21.894 12.253 7.443 4.305 13.868 8.019 15.305 8.602 1.692.676 10.428-.67 29.96-3.917 12.51-2.08 28.078-4.671 29.858-4.14 2.576 1.097 30.29 19.691 40.747 26.763l16.428 13.033.003.003h.002l65.763 52.172a1.033 1.033 0 001.462-.17 1.044 1.044 0 00-.172-1.464l-37.31-29.601 20.113-22.144 35.954 29.705c.44.367 1.098.301 1.462-.142a1.04 1.04 0 00-.14-1.467l-35.278-29.15c8.897-3.046 49.297-16.897 70.343-24.23l8.84 32.709 5.959 32.535c-12.395 17.897-32.535 46.261-35.366 48.423-3.134.017-25.678.003-29.154 0zm48.964-115.61c-22.253 7.751-66.073 22.766-71.47 24.616l-13.93-11.509c6.174-2.613 28.055-11.902 30.866-13.427 2.379-1.289 2.998-9.806 2.458-33.756-.052-2.427-.098-4.409-.098-5.654 0-.709 1.081-3.306 14.977-6.993 8.505-2.258 18.404-4.028 23.725-4.978 1.287-.23 2.273-.408 2.957-.54 1.306 2.36 5.702 10.34 6.852 12.935.386.87-2.453 3.9-4.147 5.71-3.113 3.316-6.048 6.45-4.827 8.897 1.495 3 10.334 20.217 12.637 24.7zm23.942-54.31c-3.29 1.66-21.755 10.948-26.168 13.17-1.58-3.243-5.155-9.737-6.403-11.99.077-.093.15-.18.216-.298 1.725-3.046-1.448-13.621-5.143-25.121-.553-1.714-1.016-3.148-1.303-4.128-.411-1.406-2.494-7.586-5.437-16.202 11.766 5.148 28.82 13.143 30.307 15.346 4.136 6.122 15.551 26.892 13.93 29.224zm-46.6-45.04c3.142 9.188 5.381 15.828 5.803 17.262.29.99.758 2.444 1.317 4.179 1.73 5.386 6.991 21.758 5.289 23.49-.02.006-.036.017-.055.022-.507.101-1.78.329-3.534.643-26.62 4.757-38.616 8.597-40.22 12.981h-16.578c.027-4.453.137-21.714.134-25.313.255-1.352 6.606-9.776 12.65-17.182l35.193-16.081zm-50.532 125.25l-9.672 10.646-12.573-11.875 8.204-10.373 14.04 11.601zm17.635-28.034c-2.847 1.54-27.586 12.026-31.657 13.744l-11.478-9.483c1.155-4.62 2.185-23.422 2.844-40.814h41.597c.016 1.21.052 2.805.093 4.658.186 8.23.676 30.089-1.4 31.895zm-63.694 29.645c3.239-3.708 16.124-18.525 19.59-23.482l10.821 8.942-8.82 11.152a1.042 1.042 0 00.101 1.407l13.294 12.557-9.07 9.986-25.916-20.562zm21.348-66.198c-.644 16.59-1.618 34.254-2.555 39.355l-16.71-13.804a1.033 1.033 0 00-1.462.14 1.04 1.04 0 00.138 1.466l17.224 14.232c-2.683 3.922-13.436 16.443-19.62 23.515l-15.754-12.502c-1.607-1.09-37.873-25.598-41.191-27.01-1.738-.739-11.235.728-30.986 4.012-12.094 2.012-27.15 4.519-28.867 4.029-1.275-.517-7.95-4.376-15.015-8.462-10.991-6.355-18.828-10.855-21.946-12.267 1.278-2.945 1.749-6.634 2.165-9.932.413-3.276.8-6.371 1.853-7.534 1.065-1.175 3.12-5.677 5.264-10.82l14.728 4.708c2.48.794 3.926 3.323 3.354 5.884a74.533 74.533 0 00-.756 3.772c-.446 2.644-7.402 7.991-11.68 10.742a1.043 1.043 0 001.124 1.754c1.21-.777 11.862-7.731 12.61-12.146a70.37 70.37 0 01.733-3.667c.807-3.621-1.235-7.2-4.755-8.326l-14.558-4.655c2.516-6.155 4.996-12.716 6-15.403 24.578 10.882 68.323 28.425 80.25 29.276 14.394 1.029 62.555 3.615 63.037 3.643h17.375zM488.196 74.18c-5.376-2.414-9.753-4.491-12.548-5.969-2.138-1.133-5.836-4.201-10.559-8.577l23.959-18.835c3.791 7.168 7.107 13.432 8.024 15.16l-8.875 18.221zm-43.578-34.854l31.063-23.8c1.891 3.591 7.391 13.98 12.376 23.4l-24.509 19.265c-5.37-5.06-11.897-11.604-18.93-18.865zM385.382-21.45c9.844 10.926 26.718 29.509 43.326 47.137-7.473 4.47-24.142 14.182-27.449 14.913-2.313.509-9.006-.758-14.38-1.776-5.21-.988-8.218-1.538-9.466-1.287-2.1.422-14.159 3.528-19.078 4.798.06-.134.115-.265.175-.402 12.15-28.149 24.038-56.593 26.872-63.383zm-30.146 65.734a2665.407 2665.407 0 01-12.004 27.352L329.42 64.48l2.694-33.88c3.977 1.714 15.538 8.818 23.123 13.682zM330.06 30.14l-2.696 33.904h-25.037l.405-16.284c0-.016-.008-.033-.01-.052 0-.016.007-.033.007-.052l-1.322-17.436c8.924-.162 24.194-.342 28.653-.08zm-73.086 18.64h43.65l-2.024 81.465c-2.85-.14-10.452-.668-18.623-1.253L256.974 48.78zm43.701 81.78l.624-25.176c1.59.123 4.55.435 7.649.763 6.868.728 15.426 1.64 18.05 1.486.77-.043 1.868-.112 9.755-16.812 3.654 1.267 17.62 6.12 20.514 7.233.956.367 2.902 3.588 4.619 6.43 3.312 5.487 7.385 12.225 12.16 13.894l-3.704 21.008c-2.401-.834-5.5-3.207-8.278-5.331-3.617-2.77-6.74-5.162-9.105-5.162-2.653 0-4.129 3.98-5.834 8.588-1.311 3.545-3.11 8.397-4.856 8.192-2.461-.288-8.684-.745-15.273-1.229-6.28-.463-12.773-.942-15.508-1.245-2.592-.288-4.867-4.21-6.693-7.36-1.459-2.515-2.672-4.576-4.12-5.279zm65.66 43.56l9.742-55.268 30.663 5.941 12.173 24.564c-.35 2.301-2.46 16.125-3.402 20.849-.258 1.297-1.865 1.267-5.604.687-3.657-.567-8.207-1.27-9.124 2.95-1.347 6.207-2.844 16.64-2.86 16.744-.23 3.394-.516 7.384-.814 11.396l-13.102-6.401a1.04 1.04 0 00-1.322.359l-7.402 11.116c-1.404-1.576-4.221-3.374-8.141-5.777-2.086-1.28-4.9-3.008-5.51-3.75.65-2.99 4.53-22.548 4.702-23.41zm9.958 35.176l7.619-11.44 13.03 6.366c-.712 9.398-1.467 18.326-1.79 19.322-.18.419-1.687 2.343-3.014 4.04-4.676 5.98-7.356 9.71-8.04 12.028l-12.508-5.145c1.99-5.022 4.763-21.55 4.703-25.17zM365.34 255.42c1.895-8.07 4.219-16.766 5.26-19.108l13.722 5.646c.682 1.28 2.724 5.542 5.06 10.422 5.239 10.941 9.827 20.45 12.165 24.623-2.886-.413-7.712-1.073-9.15-1.073-.404-.142-1.598-1.71-2.386-2.748-1.725-2.266-3.638-4.778-5.656-4.778-.443 0-.89.12-1.339.391-2.203 1.322-7.473 3.112-9.532 3.785-1.201-2.482-4.44-9.28-8.144-17.16zm-17.648-33.726l-12.234 17.66c-.101-.204-.192-.393-.299-.604a224.095 224.095 0 00-5.655-10.504 1.036 1.036 0 00-1.35-.416l-4.908 2.356c-3.433-6.489-8.251-16.229-9.518-20.356 16.482 4.937 31.278 9.798 33.964 11.864zm-36.535-14.8a1559.567 1559.567 0 00-28.478-8.11 1.044 1.044 0 00-.545 2.014 1389.727 1389.727 0 0129.289 8.345c.887 4.573 7.829 17.94 9.945 21.947l-18.955 9.102c-.125.06-.24.148-.334.252-.238.274-8.842 10.09-20.153 22.894l-32.478-62.477 22.897-24.081 33.014 7.786c1.593 5.45 5.004 17.584 5.798 22.327zm-105.662-15.486l41.446 10.047-8.52 37.92-41.64-6.865 8.714-41.102zm15.207-81.793l-8.13 38.368a1170.677 1170.677 0 01-27.707-5.386h-.003c-.005-.003-.01-.003-.013-.003-12.823-2.666-23.986-5.29-26.121-6.62 1.084-4.634 5.5-30.995 6.452-36.696l55.522 10.337zm-.35-2.187l-31.225-5.813-6.914-45.596c5.152.687 17.057.906 20.142.955l17.996 50.454zm-40.324-51.926l6.934 45.71-21.69-4.036-7.22-62.945c3.772 1.541 9.082 7.685 13.451 12.743 4.06 4.702 6.63 7.608 8.525 8.528zm-24.131-21.769l7.235 63.043-34.44-6.412 7.583-60.035 19.622 3.404zm-46.581-4.92c.334-1.262.607-2.289.805-3.022l24.1 4.182-7.58 60.01-39.214-7.299c2.379-3.81 9.307-14.86 10.914-16.96 1.276-1.667 4.454-12.36 10.975-36.912zm-27.197 75.14c2.362-6.156 3.988-16.025 4.486-19.3l76.527 14.244c-2.075 12.445-5.888 34.879-6.526 36.975l-.003.006c-.104.347-2.598 8.588-3.49 12.863-.348 1.664-9.475 3.571-14.375 4.595-8.62 1.8-11.908 2.657-12.228 4.53-1.038 6.042-14.323 77.791-17.542 89.127l-23.707-25.46 7.912-11.952a1.04 1.04 0 10-1.733-1.155l-8.057 12.17H30.155c-.167 0-.33.042-.476.118L9.386 231.212-6.661 194.8c5.04-.11 9.31-.186 11.098-.186 2.258 0 5.149 1.207 8.494 2.608 4.69 1.96 10.526 4.398 17.208 4.5 1.413.021 3.148.068 5.114.122 18.858.507 39.332.605 43.572-4.663 2.7-3.358 2.984-10.81 3.288-18.7.274-7.163.559-14.57 2.721-18.182 4.728-7.904 12.059-33.622 13.608-39.82.931-3.745-3.591-6.156-8.382-8.712-5.319-2.836-8.998-5.055-7.941-7.817zm.443 56.2c-1.99 4.243-2.264 11.353-2.53 18.25-.276 7.203-.56 14.653-2.827 17.469-3.948 4.907-29.576 4.217-41.895 3.886-1.976-.052-3.72-.098-5.138-.12-6.283-.096-11.678-2.351-16.439-4.34-3.553-1.487-6.622-2.77-9.296-2.77-1.873 0-6.445.087-11.769.202-.736-5.657-1.946-15.397-1.946-17.1.096-.67 2.46-2.468 3.873-3.544 2.313-1.762 4.372-3.33 4.958-4.896l36.775-1.035c1.533 1.423 8.593 7.997 10.715 10.198 2.784 2.884 10.934.553 11.853.273a1.04 1.04 0 00.652-.566l4.758-10.529a1.045 1.045 0 00-.947-1.475c-.395 0-.775.227-.948.613l-4.56 10.091c-3.244.898-8.008 1.494-9.308.145-2.182-2.26-9.179-8.777-10.777-10.26v-13.75c15.237-.78 26.25-1.16 27.616-.747 2.565 1.294 13.977 8.095 17.18 10.005zm-82.867-7.06c12.708-.792 25.284-1.53 35.987-2.089v13.08L-.37 165.098c-.137-2.627-.036-8.389.065-12.007zM-22.859 319.29c-1.634 4.6-13.26 37.377-24.618 69.327-3.868-1.333-20.493-8.192-31.668-12.874l-24.66-10.518c1.684-4.34 7.239-18.734 10.984-29.147l24.971 9.579a1.043 1.043 0 00.745-1.946l-25.018-9.598c1.634-4.615 2.79-8.156 2.874-9.16.112-1.38-.378-5.978-1.026-11.11l19.477-2.72a1.044 1.044 0 10-.14-2.077c-.049 0-.098.005-.148.01l-19.455 2.718a937.825 937.825 0 00-2.048-14.669c15.908-2.759 41.57-7.42 46.1-8.243l23.63 30.428zm-82.265-20.146c.972-.08 4.98-.736 10.482-1.683 1.128 7.627 3.532 24.733 3.315 27.322-.07.875-1.286 4.54-3.085 9.56 0 .002-.003.002-.005.005v.008c-.753 2.108-1.61 4.45-2.527 6.933-4.692-1.842-24.884-9.763-28.52-11.235-1.54-.627-2.885-6.856-3.867-11.402-.156-.717-.312-1.44-.468-2.151-1.435-6.486-2.697-10.474-4.9-11.664-3.143-1.697-20.775-18.543-30.696-28.176 4.257 1.664 9.042 3.555 13.947 5.493 26.33 10.4 43.784 17.22 46.324 16.99zm35.038 156.224c1.689 3.452 7.95 8.958 18.762 17.99 5.454 4.556 12.215 10.205 12.812 11.74-.997 3.74-2.798 32.21-3.222 39.116-11.848-1.864-41.999-1.744-50.6 2.028.693-4.434 2.034-12.584 3.041-15.838.775-2.516-.024-8.37-.873-14.569-.78-5.703-1.664-12.165-.912-14.201.797-2.146 1.867-6.53 3.004-11.175 1.231-5.03 2.504-10.235 3.293-11.946.5-1.092 4.281-1.412 7.04-1.645 2.998-.254 5.875-.503 7.655-1.5zm-23.305 30.388c.145 2.906.644 6.57 1.164 10.361.638 4.661 1.344 9.845 1.13 12.538l-16.592-6.552a1.077 1.077 0 00-.38-.071c-.148 0-.293.027-.43.09a1.053 1.053 0 00-.55.596l-2.935 8.096-4.413-2.376a.93.93 0 01-.427-1.149l7.668-20.036c2.967.104 11.938-.085 15.765-1.497zm2.303 69.945c-.759-12.633-1.468-24.117-1.681-26.588l.033-.214c.49-.772 5.045-2.822 20.982-3.56 11.777-.545 24.44-.083 30.792 1.124 16.729 3.186 52.026 7.488 78.88-5.514 2.65 7.605 6.45 19.157 6.437 20.953-.02 2.326 3.953 2.466 12.937 2.57 3.918.04 9.751.11 11.002.769.143 3.42 3.742 18.772 4.572 22.283L32.84 612.788c-3.247-.148-6.025-.241-7.873-.241a41.2 41.2 0 00-1.257.016c-3.523.137-5.633 2.083-7.676 3.963-2.07 1.908-4.226 3.86-8.127 4.472l-.238-12.417a1.03 1.03 0 00-.337-.747 1.032 1.032 0 00-.704-.274H6.56l-76.615 5.085-1.144-19.814a1.041 1.041 0 00-1.037-.986h-.055l-16.611.874c-.132-2.258-.452-7.757-.857-14.637 27.545-1.878 58.465-3.944 60.95-3.944h.025c1.016.006 2.321 3.867 3.277 6.689 2.012 5.944 4.514 13.353 10.386 13.104 8.519-.342 28.448-.003 28.65 0a1.035 1.035 0 001.057-1.024 1.04 1.04 0 00-1.02-1.062c-.2-.002-20.193-.342-28.772 0-4.317.148-6.543-6.404-8.33-11.686-1.53-4.521-2.738-8.09-5.237-8.104h-.025c-2.181 0-24.92 1.497-48.648 3.101l-1.004-18.312c21.067-1.58 42.888-3.136 55.719-3.837v10.077l-37.14.846a1.042 1.042 0 00-1.016 1.067c.011.575.51 1.07 1.063 1.018l38.158-.867a1.043 1.043 0 001.018-1.043v-11.208c4.588-.232 7.736-.328 8.858-.235 8.073.673 51.876 16.087 52.317 16.24a1.04 1.04 0 001.33-.634 1.045 1.045 0 00-.638-1.33c-1.812-.64-44.498-15.658-52.836-16.356a16.81 16.81 0 00-1.347-.04c-1.78 0-4.796.117-8.724.322h-.003v.003c-15.248.79-44.356 2.92-69.398 4.833zm10.56 1.3l1.005 18.293-10.358.703c-.331-5.63-.712-12-1.082-18.205 3.42-.263 6.913-.528 10.436-.791zm-12.512.947c.372 6.204.75 12.57 1.081 18.192a29130.9 29130.9 0 00-41.355 2.843 1.042 1.042 0 00.145 2.08c.438-.03 19.562-1.354 41.333-2.838.405 6.903.726 12.398.854 14.604l-39.817 2.091c-.575.03-1.015.52-.982 1.097a1.032 1.032 0 001.092.986l57.474-3.019 1.084 18.802-54.953 3.646a1.038 1.038 0 00-.969 1.108c.038.575.54 1.007 1.106.969l54.936-3.643.548 9.486v10.124l-51.646 3.202a1.044 1.044 0 00-.975 1.108 1.035 1.035 0 001.1.974l26.193-1.625 1.848 20.425-44.361 5.772c-.011 0-.022.008-.033.01-.025.003-.052.003-.077.009l-44.511 10.706c-5.599-24.631-11.465-50.357-12.18-53.127-1.045-4.064-.462-37.082.009-54.794l60.353-5.85c.463-.037 19.584-1.57 42.703-3.338zm-92.448 119.633c4.566 20.091 8.844 38.978 9.855 43.436l-19.201 4.757-.414-1.404-11.924-41.573 21.684-5.216zm-27.693-8.183l-13.044 3.588c-.52.14-.846.656-.75 1.187l2.162 12.01-11.519 2.95-5.371-24.533 25.527-5.632 2.995 10.43zm-28.314 5.895l3.15 14.387-8.581 2.505v-15.36l5.431-1.532zm-5.431 32.505v-13.44l9.028-2.636 3.044 13.903-12.072 2.173zm.191 2.086l12.327-2.217 5.788 26.427-12.637 2.564-5.478-26.774zm37.088-28.16l-23.343 22.683-2.896-13.238 12.527-3.207c.531-.134.865-.657.766-1.194l-2.165-12.025 12.152-3.34 2.96 10.321zm12.401 43.232l.389 1.316-29.732 7.365-5.875-26.832 23.471-22.809 11.747 40.96zm3.003 2.818l67.274-16.656h.003l.003-.003 17.845-4.417 34.446-7.789 29.385-2.408c1.429 2.378 7.038 12.263 5.751 19.13-.73 3.914-1.618 18.61-.703 31.849l-55.339 21.385c-.115.044-.222.11-.315.192l-47.038 41.493-20.846-27.21 64.189-34.262c.506-.268.698-.9.43-1.41a1.044 1.044 0 00-.92-.55 1.05 1.05 0 00-.49.118l-29.366 15.674-6.518-12.964a1.042 1.042 0 00-1.371-.477l-23.841 11.183c-.52.246-.745.865-.5 1.388.243.522.861.747 1.381.5l22.924-10.75 6.089 12.1-33.294 17.773-21.618-28.22-7.561-25.669zm156.755-11.76c1.508-8.068-5.087-19.103-6.223-20.923l-2.02-51.858c1.769-.136 5.256-.796 8.177-3.713 3.258-3.255 4.785-8.307 4.585-14.985 4.657-.112 9.346-.23 13.806-.347-.496 5.432-2.61 28.326-3.51 33.365-1.07 5.993 14.621 16.55 18.642 19.141l12.768 48.24c.071.268.247.498.487.635.244.14.532.175.797.104l45.128-12.568 6.367 28.51c-5.01 1.456-13.548 4.346-23.326 7.657-24.295 8.225-64.955 21.988-70.529 19.194-7.367-3.692-6.767-43.792-5.15-52.452zm101.01 25.029l-6.364-28.499 55.599-15.485c.553-.15.876-.725.722-1.28a1.04 1.04 0 00-1.278-.729l-25.426 7.08v-25.157l37.438-4.045 10.633 43.42c-13.477 4.6-26.946 9.357-38.53 13.449-15.191 5.367-27.332 9.658-32.793 11.246zm73.475-23.225c8.481-2.888 16.937-5.701 24.887-8.227 2.234 9.987-11.372 48.491-17.41 64.061l-16.812-4.568c4.016-22.24 8.572-47.112 9.335-51.266zm29.226 61.746l-19.73-5.364c3.015-7.82 20.135-53.09 17.373-65.233a605.835 605.835 0 0113.41-4.073v33.16l-11.053 41.51zm32.535-106.59l40.244 3.991-4.37 25.275c-13.89-3.052-24.979-5.052-30.517-5.143l-5.357-24.122zm109.637-133.259c-.914 3.804-3.994 16.55-5.437 21.287-4-1.04-8.259-2.137-12.524-3.21-.142-.036-.276-.071-.416-.104l5.702-21.23 12.675 3.257zm50.764-187.805l-6.515 10.608-19.612-13.427 7.069-10.797a7197.223 7197.223 0 0019.058 13.616zm-42.87-14.28a1.096 1.096 0 00-.325-.148l-28.311-7.404-17.033-16.122a5579.637 5579.637 0 0026.874-30.56l17.356 15.348c2.674 5.772 14.886 31.917 17.63 34.022.728.556 2.994 2.2 5.926 4.31l-7.093 10.838-15.023-10.285zm-34.563-70.915l14.268 15.23a5968.675 5968.675 0 01-26.888 30.577l-15.289-14.47c9.078-10.09 19.18-21.462 27.91-31.337zm-78.44-74.926l-8.503 40.119-12.694-5.394c1.09-4.377 5.804-23.43 6.636-29.24l14.56-5.485zm8.85-41.765l-8.338 39.342-15.103 5.69c-.572-2.356-2.907-4.414-5.357-6.568-3.07-2.699-6.24-5.487-6-8.81.45-6.286 6.64-29.747 7.993-34.82 9.764 2.019 19.926 3.918 26.805 5.166zm-101.457 98.36c1.626-5.17 5.73-25.702 9.6-45.875l41.238 17.527c-.468 3.111-2.204 14.472-3.006 17.789-.276 1.141-6.222.879-9.08.755-5.557-.246-10.361-.454-10.745 2.414-.419 3.126-3.09 14.051-4.018 17.814l-23.99-10.424zm-100.45-15.258l20.178-10.444h25.886l-1.965 41.288c-3.373-.15-6.724-.285-9.921-.383-.006 0-.008-.003-.011-.003h-.017c-.002 0-.005.003-.008.003-9.395-.293-17.421-.296-20.567.337L10.23 233.125zM-45.62 389.62c5.22-14.691 10.506-29.571 14.862-41.843 5.787-.241 43.326-1.81 45.302-2.061.786-.099 2.147-.95 6.146-3.555 6.748-4.401 18.06-11.747 23.614-11.358 7.517.547 80.45 7.154 95.194 8.492-3.047 3.432-9.521 13.167-24.255 40.596-1.201-.071-5.08-1.352-8.521-2.499-6.453-2.151-14.24-4.748-19.012-4.748-.863 0-1.626.084-2.267.27-2.316.682-40.392 22.785-42.064 28.639-1.246 4.357-.444 15.87-.137 19.634-35.21-1.982-67.975-4.3-71.19-5.903-1.108-2.078-5.55-8.654-9.432-14.248-5.027-7.248-7.178-10.212-8.24-11.416zM74.555 565.616c-1.862-7.94-4.243-18.783-4.183-20.6a1.55 1.55 0 00-.452-1.142c-1.18-1.234-4.747-1.404-12.603-1.491-3.88-.044-9.664-.107-10.895-.756-.299-3.3-5.22-17.59-6.625-21.618 7.304-3.818 13.92-8.977 19.266-15.896l60.064-.063 19.05 13.726c-5.721 10.342-11.708 21.235-13.597 24.894l-18.673-11.221c-.038-.022-.079-.033-.117-.052-.033-.014-.063-.03-.093-.038a1.038 1.038 0 00-.326-.06 1.178 1.178 0 00-.375.079c-.025.01-.047.016-.071.027a1.088 1.088 0 00-.31.227c-.005.008-.016.011-.024.02l-30.036 33.964zm115.358-60.23l-9.715 12.89-27.529-21.818 12.894-13.711c7.78 7.326 16.858 15.808 24.35 22.639zm-25.007 33.81c.148.622 1.823 7.691 4.287 15.814l-19.57 2.71-6.048-3.635c2.752-5.05 11.457-21.23 11.597-23.909.147-2.876-9.357-9.71-14.263-13.038 4.668-8.432 8.996-16.216 10.537-18.988l27.498 21.793-13.855 18.386a1.053 1.053 0 00-.183.868zm-38.538 4.55c1.727-3.37 7.744-14.317 13.528-24.774 6.392 4.365 13.009 9.655 13.198 11.125-.09 1.658-6.496 14.078-11.303 22.918l-15.423-9.27zm135.13-104.696c-1.442.55-2.597 1-3.339 1.29-4.358.845-38.544 7.507-41.662 8.99-3.052 1.445-30.526 34.312-37.71 42.944a4089.496 4089.496 0 01-29.18-27.506 1.029 1.029 0 00-.718-.287 1.042 1.042 0 00-.717 1.798c.725.693 7.37 7.023 15.875 15.036l-12.993 13.816-17.09-14.653a1.025 1.025 0 00-.676-.25 1.041 1.041 0 00-.676 1.834l17.197 14.747a9497.25 9497.25 0 00-10.616 19.13l-19.122-13.777a1.044 1.044 0 00-.61-.2l-59.905.066c.403-4.568 7.32-18.983 13.477-31.808 3.712-7.731 7.55-15.723 10.137-21.878 2.012-4.787 5.779-12.743 10.476-22.229 4.676 1.889 21.391 5.967 22.812 6.205.014 0 .027 0 .04.002.015 0 .028 0 .042.003.01 0 .022.003.036.003.024 0 .07-.014.1-.017a.976.976 0 00.27-.035c4.927-.963 36.052-18.34 42.414-23.567l23.296 33.447a1.04 1.04 0 101.706-1.196l-23.2-33.307c5.242-.154 28.518 6.847 49.816 14.338a1.043 1.043 0 00.69-1.968c-.123-.044-12.425-4.362-24.903-8.221l12.127-22.459 27.022 14.204 10.851 21.687c.096.192.244.345.43.449l24.304 13.37zm-16.397-58.574l18.574 13.994-18.374 33.288-6.82-3.752-10.856-21.695a1.064 1.064 0 00-.449-.457l-26.797-14.084 26.34-20.548 18.382 13.254zm-21.407-35.814l1.91 20.784-27.12 21.158-15.094-12.49c8.902-12.675 16.48-22.977 18.034-23.773 1.12-.427 6.217-1.689 12.122-3.147 3.474-.857 6.885-1.705 10.148-2.532zm28.73-45.065l15.3 14.48c-9.127 10.278-17.287 19.326-18.933 20.697-2.658 2.222-23.37 7.34-35.743 10.394-5.475 1.352-9.65 2.387-11.569 2.964l-9.168-14.568c17.115-2.616 32.847-5.744 36.36-8.624 2.65-2.173 12.255-12.584 23.753-25.343zm-21.005-19.565l8.139-36.217 11.859 26.085c.06.14.153.26.268.358l13.67 11.76a4100.92 4100.92 0 01-13.109 14.66l-20.827-16.646zm-87.813 59.441c5.872-.394 26.759-2.627 46.455-5.57l9.6 15.25c-2.983 2.825-10.353 12.888-18.11 23.931-3.926-1.19-22.687-6.962-26.812-9.935-3.46-2.493-8.845-16.875-11.133-23.676zm-24.736 89.935l35.636-63.946c5.453 3.117 20.989 7.962 25.785 9.418-9.135 13.054-18.5 26.98-21.635 31.657-1.919 2.846-31.163 18.993-39.786 22.871zm42.915-23.796c6.075-9.04 13.56-20.004 20.406-29.785l14.95 12.373-12.404 22.976c-13.546-4.128-19.88-5.414-22.952-5.564zm-20.205-65.627c1.568 4.68 6.904 19.927 11.235 24.235l-36.727 65.897c-3.786-.815-17.867-4.433-21.516-5.865 6.463-12.997 14.516-28.575 22.184-42.815.047-.06.09-.126.129-.197.019-.033.019-.068.033-.104 11.002-20.422 21.177-38.023 24.662-41.151zm-96.201 62.143c1.226-4.295 37.035-26.15 40.649-27.21 3.55-1.043 13.08 2.135 20.036 4.453 4.002 1.335 6.52 2.156 8.138 2.466a1638.72 1638.72 0 00-21.607 41.855 4764.27 4764.27 0 01-47.255-2.387c-.27-3.312-1.13-15.086.039-19.177zm141.02-119.2l43.512-1.435 20.936 16.736c-11.423 12.682-20.936 23-23.496 25.097-3.156 2.591-18.78 5.681-35.825 8.309l-2.174-20.658c8.516-1.245 20.663-2.967 21.708-2.967 1.314 0 6.466-4.335 15.32-12.887.413-.397.424-1.06.024-1.473a1.034 1.034 0 00-1.47-.027c-5.88 5.679-12.664 11.782-13.983 12.305-1.996.095-17.277 2.31-21.818 2.972l-2.735-25.973zm-50.338-21.244l48.213 20.95 2.73 25.924-32.528-11.438a1.084 1.084 0 00-.503-.046l-33.445 5.214c-.049-4.155-.188-17.828.011-20.283.052-.67 2.13-2.65 3.8-4.24 3.865-3.678 9.592-9.138 11.722-16.081zm-92.738 3.933l-.616 40.116-19.185-.607.72-39.312c1.955-.548 9.617-.507 19.08-.197zm19.29.848l-.612 39.876-17.214-.542.616-40.108c5.492.197 11.465.476 17.21.774zm25.473 1.576v39.124l-24.005-.758.613-39.83c10.154.545 19.305 1.142 23.392 1.464zm46.045-7.195c-1.922 6.536-7.268 11.64-11.226 15.409-2.601 2.477-4.323 4.116-4.44 5.58-.214 2.644-.06 16.982-.014 20.778l-28.281 4.41v-39.044c5.288-1.46 16.578-13.794 19.554-17.738l24.407 10.605zm56.475-9.24l-6.113 28.85-47.89-20.808c.953-3.84 3.701-15.059 4.147-18.378.13-.977 6.058-.717 8.59-.605 4.805.21 9.045.388 10.617-1.297l30.649 12.239zm3.734-17.619l-3.294 15.548-30.315-12.102c.838-3.969 2.245-13.11 2.765-16.556l30.844 13.11zm99.365 301.95l-2.269 8.438c-6.354-1.15-41.552-7.496-45.659-7.496h-.098l-32.566 1.01a3639.158 3639.158 0 01-4.22-19.703c3.265-1.3 6.668-5.348 9.997-9.322 3.375-4.03 6.865-8.2 9.376-8.393 3.068-.244 3.7 6.604 4.19 11.596.477 4.822.789 8.01 2.686 8.64 1.79.594 32.136 8.432 58.563 15.23zm-88.292-19.861c-1.769-1.182-6.57-5.389-12.658-10.923 7.18-8.552 20.263-24.024 21.954-25.59 2.037-1.338 23.179-.276 30.124.075 2.217.11 3.75.186 4.446.2.815.96 1.612 6.434 2.2 10.462.904 6.208 1.84 12.625 3.672 15.513 2.693 4.24 8.447 16.051 10.733 20.797-16.08-4.154-28.982-7.515-30.088-7.885-.637-.462-1.018-4.313-1.267-6.861-.608-6.177-1.374-13.843-6.425-13.473-3.378.26-6.989 4.573-10.81 9.135-4.15 4.954-8.853 10.573-11.881 8.55zm8.152 23.887c5.656-.175 28.84-.895 32.177-.996 2.95-.115 32.576 5.15 45.15 7.433l-2.897 10.778c-22.196-5.548-29.82-6.837-32.645-6.837-1.35 0-1.607.296-1.834.559-1.415 1.63-19.526 14.713-32.105 23.649-1.982-8.055-4.944-21.26-7.846-34.586zm-46.518-.769l13.529-17.959 8.74 6.93a1.038 1.038 0 001.462-.173 1.046 1.046 0 00-.17-1.464l-8.776-6.957 9.628-12.778c6.118 5.553 10.964 9.792 12.798 11.018.848.567 1.716.816 2.598.813a3386.251 3386.251 0 006.914 32.01c-6.214.482-21.02 2.146-21.724 6.968-.501 3.424-7.846 14.248-11.454 19.292-6.066-7.496-12.606-33.827-13.545-37.7zm-107.058 46.04l45.587-51.552 18.103 10.882c-2.79 6.303-16.512 38.07-18.908 43.617l-23.359-6.194a1.04 1.04 0 00-1.27.74 1.046 1.046 0 00.74 1.277l24.223 6.427a1.045 1.045 0 001.221-.597c.17-.391 15.88-36.778 19.155-44.192l15.4 9.256-8.557 20.973a1.045 1.045 0 00.57 1.36 1.039 1.039 0 001.358-.572l8.437-20.672 6.18 3.712c.203.123.442.175.677.14l20.268-2.812a173.898 173.898 0 002.708 8.003c-3.307 13.616-7.725 28.228-9.527 29.599-3.17.364-7.314 11.142-9.65 18.036l-.52.084c-23.558 3.983-33.246 3.107-37.227 1.667-4.952-1.787-10.383-.509-15.174.616-4.79 1.128-8.927 2.102-11.03-.317-4.42-5.096-25.222-25.404-29.405-29.482zm40.912 31.829c4.508-1.062 9.62-2.264 13.991-.684 2.22.801 5.333 1.237 9.3 1.319l2.844 11.325-25.55 8.569-17.823-8.944c2.868-5.115 4.612-9.35 5.412-11.468 2.973 1.963 7.287.95 11.826-.117zm57.057 11.005l-13.928.279-.819-5.397a1.042 1.042 0 00-1.185-.873 1.049 1.049 0 00-.873 1.19l.777 5.124-12.841.251-2.746-10.93c6.786-.066 15.743-1.032 26.827-2.904l.931-.156c1.035.941 2.437 6.212 3.857 13.416zm-227.891-13.343l75.544-5.01.219 11.508c-11.333.722-67.104 1.866-75.27 2.033l-.493-8.53zm-22.946 43.563l-1.834-20.283 24.356-1.508c.547-.036.977-.49.977-1.04V625.34c4.079-.082 18.801-.38 34.33-.753.187 6.084-1.138 10.62-3.974 13.455-3.362 3.358-7.681 3.136-7.728 3.136-.296-.016-.58.09-.788.296a1.03 1.03 0 00-.312.785l.98 25.116-33.351-10.633c-.006-.002-.014 0-.02-.002-.032-.011-.068-.011-.1-.017-.066-.013-.132-.03-.198-.03-.025 0-.052.011-.077.011-.019.003-.038-.005-.054-.003l-12.207 1.588zm16.882 38.78l-14.812 3.35-3.833-23.473 15.525-1.804 3.12 21.928zm30.181-2.616l-28.125 2.305-1.974-13.881 29.429-5.592.67 17.168zm-.753-19.275l-29.638 5.632-3.07-21.577 32.147 10.247a.961.961 0 00.34.038l.221 5.66zm-91.29-8.93l56.434-7.343 2.015 14.174-16.554 1.921a1.026 1.026 0 00-.712.408 1.036 1.036 0 00-.197.796l4.03 24.676-16.751 3.79-16.899 4.182-11.366-42.604zm9.343 43.105l-45.094 11.166c-1.079-4.76-5.328-23.512-9.853-43.425l43.548-10.477 11.4 42.736zM66.53 615.88a1.04 1.04 0 00-.967-1.11c-.999-.07-17.752-1.246-30.052-1.859l23.093-26.115c4.156 4.05 23.803 23.241 28.82 28.835-.88 2.436-4.768 12.448-12.438 22.453a1.042 1.042 0 00.194 1.462 1.031 1.031 0 001.456-.192 89.29 89.29 0 005.987-8.892l18.32 9.19c.249.124.536.146.796.055l25.807-8.656 1.566 6.237c.14.558.706.898 1.262.755.558-.142.895-.708.755-1.267l-1.52-6.056 28.75-.572c1.235 6.552 2.453 14.39 3.43 21.965.008.055.02.113.036.167l15.196 50.528a610.06 610.06 0 00-13.844 4.196c-4.66-11.78-16.948-52.364-17.077-52.78a1.037 1.037 0 00-1.297-.698c-.55.17-.86.752-.695 1.302.517 1.708 12.351 40.788 17.079 52.805-7.8 2.477-16.064 5.222-24.361 8.04l-15.314-62.539a1.042 1.042 0 00-2.023.496l4.227 17.255L85.623 675a1.04 1.04 0 00-.928 1.037v26.673L56.7 710.507l-11.306-50.618a1.045 1.045 0 00-1.243-.791 1.044 1.044 0 00-.788 1.245l11.328 50.722-44.214 12.313-12.6-47.61a1.022 1.022 0 00-.447-.61c-7.333-4.686-18.721-13.51-18.053-17.237.413-2.318 1.062-8.158 1.7-14.404h38.524a1.042 1.042 0 000-2.085h-38.316c.733-7.324 1.412-14.725 1.648-17.305 11.366-.312 20.909-.633 24.043-.895 5.344-.447 8.065-2.956 10.468-5.17 2.004-1.848 3.586-3.306 6.348-3.413 6.614-.246 41.274 2.176 41.624 2.2a1.052 1.052 0 001.112-.969zM-38.433 505.97c.655-9.024 1.33-17.08 1.782-19.659 2.286.027 9.023.118 17.337.23v21.115l-19.119-1.686zm19.119 21.265a192.854 192.854 0 01-20.359-2.652c.31-5.047.693-10.9 1.09-16.53l19.269 1.696v17.486zm28.897-.498c-9.253 1.144-18.478 1.166-26.816.638V509.8l24.09-.873 2.726 17.809zm27.72-7.8c-8.004 3.925-16.806 6.273-25.656 7.53l-2.724-17.79 24.553-4.475a495.49 495.49 0 013.827 14.735zM5.589 486.888c11.087.161 20.425.314 22.182.385.96 1.117 2.946 7.144 5.141 14.91L8.61 506.616l-3.02-19.727zm-22.822-.32c6.55.09 13.884.191 20.711.29L6.54 506.85l-23.772.862v-21.145zm-29.204-94.657c3.638 4.836 15.376 21.78 16.729 24.497.525 1.057 1.32 2.652 62.502 6.257 26.031 1.53 52.185 2.761 58.788 3.068-4.93 9.962-8.675 17.855-10.331 21.796-2.568 6.109-6.395 14.078-10.093 21.788-8.571 17.858-13.86 29.227-13.674 33.414-5.067 6.588-11.336 11.539-18.276 15.23a591.143 591.143 0 00-4.005-15.315c-4.807-17.272-6.05-17.365-7.051-17.439-1.553-.115-26.992-.479-45.752-.73a1.018 1.018 0 00-.674-.263 1.03 1.03 0 00-.646.243 47252.6 47252.6 0 00-17.736-.232c-.9-1.894-4.525-5.11-13.334-12.47-6.666-5.566-19.073-15.93-18.5-18.12.887-2.252 11.218-31.247 22.053-61.724zM22.12 267.924l-.701 38.195c-.008.57.44 1.043 1.01 1.062l66.666 2.102c.033 0 .06-.014.09-.02.036 0 .07.014.102.009l64.747-10.096 33.21 11.678 2.22 21.093c-21.129 3.19-43.746 5.621-47.217 5.504-1.648-.151-89.486-8.126-97.795-8.726a6.6 6.6 0 00-.575-.021c-6.367 0-17.128 7.017-24.325 11.708-2.338 1.524-4.755 3.098-5.308 3.243-1.517.189-28.76 1.357-44.252 2.003l9.24-26.038c12.88-15.693 36.11-43.872 42.888-51.696zm85.91-18.879c-3.407 4.691-15.466 17.001-18.713 17.001a1428.308 1428.308 0 00-24.621-1.555 1.03 1.03 0 00-.999-.908h-.016c-.485 0-.88.342-.991.8-2.07-.11-4.175-.217-6.283-.315l1.968-41.387h25.111l24.545 26.364zm75.257-104.613c-1.445 5.405-7.56 28.586-8.029 35.095-.314 4.36 3.417 7.635 6.704 10.528 2.565 2.253 4.985 4.38 4.775 6.35-.493 4.584-5.336 24.24-6.59 29.284L120.68 200.41a5401.75 5401.75 0 007.865-42.092c.824-.895 6.474-2.075 10.619-2.942 9.556-1.996 15.404-3.41 15.987-6.208.657-3.141 2.255-8.667 3.022-11.264 3.731 1.746 13.98 4.19 25.116 6.527zm41.175 106.783l-5.398-12.92 18.897 3.114-8.541 38.015-42.88 1.41 9.808-46.283 20.293 3.347 5.779 13.83-3 15.148a1.042 1.042 0 00.818 1.226 1.033 1.033 0 001.224-.819l3.06-15.463c.041-.202.02-.413-.06-.605zm55.985 13.794a7518.821 7518.821 0 01-13.704 15.452l-13.529-11.637-12.902-28.378 8.26-36.759 13.572 26.113-9.149 4.266a1.042 1.042 0 00.879 1.891l9.233-4.307 17.34 33.36zm117.39 33.212l-19.776 22.954a.806.806 0 00-.099.134l-17.709 28.821c-2.893-2.063-12.206-8.697-19.034-13.602l8.662-14.127a1.042 1.042 0 00-.143-1.276l-8.697-8.905a1.041 1.041 0 10-1.49 1.459l8.131 8.322-8.16 13.31c-2.872-2.067-5.078-3.668-5.776-4.202-1.632-1.25-10.028-18.164-17.101-33.444a1.075 1.075 0 00-.255-.342l-18.267-16.153-15.013-16.021a7969.277 7969.277 0 0020.392-23.168l24.681-11.853c4.846 8.476 9.576 18.238 9.204 20.088-2.678 2.059-18.303 15.149-18.977 15.713a1.048 1.048 0 00-.131 1.47c.372.44 1.027.5 1.467.133.167-.142 16.754-14.037 19.007-15.734.977-.736 1.555-2.203-2.253-10.29l12.2-17.615c3.702 9.267 19.924 43.442 22.941 49.658l-25.423 20a1.047 1.047 0 00-.178 1.465c.356.457 1.01.536 1.465.178l25.228-19.85c3.92 4.833 20.748 19.19 25.103 22.877zm11.133-12.918l-9.773 11.341c-8.837-7.48-21.287-18.405-24.572-22.242 2.379-.791 7.224-2.477 9.458-3.82.909-.54 3.014 2.213 4.27 3.864 1.577 2.071 2.716 3.569 4.044 3.569 1.503 0 7.897.905 10.682 1.319.886.982 3.08 3.188 5.89 5.969zm14.5-15.677l-13.11 14.122c-3.071-3.035-5.368-5.353-5.948-6.054-.956-1.155-4.487-8.257-8.12-15.75l13.882-9.563 13.296 17.245zm32.878-93.707c.11 2.609-13.734 23.214-26.825 41.245l-9.92 13.175-22.29-7.138c.819-5.416 2.352-27.606 2.678-32.396.005-.027 1.494-10.386 2.827-16.52.466-2.148 2.867-1.934 6.77-1.33 3.409.526 7.274 1.128 7.964-2.342.898-4.516 2.847-17.196 3.348-20.483l19.66-2.307c4.44 7.425 14.988 25.362 15.788 28.096zm-10.422-40.47c-5.15 1.744-5.524 6.263-5.798 10.324l-19.532 2.294-12.056-24.326 2.075-8.867c2.85.48 8.28 1.048 13.994 1.645 6.647.695 14.925 1.563 16.086 2.064 1.185.799 3.588 9.195 5.23 16.867zM342.38 73.543a1080.599 1080.599 0 01-7.074 15.505c-.027.046-.06.09-.076.145-.006.005-.003.016-.006.024-4.314 9.218-7.413 15.26-8.568 16.345-2.73.074-11.235-.824-17.49-1.486-3.4-.362-6.233-.663-7.816-.78l.923-37.164h25.798l14.309 7.411zm14.908-28.78c2.949-.767 18.23-4.716 20.532-5.178.908-.187 5.034.599 8.67 1.289 6.137 1.163 12.482 2.367 15.217 1.762 3.789-.837 20.994-10.95 27.082-14.57l-9.327 39.861-22.198-3.864a1.04 1.04 0 00-1.202.848c-.098.567.28 1.109.846 1.207l22.078 3.846-12.332 52.692-31.221-6.051c-4.298-.835-8.615-7.98-11.769-13.2-2.573-4.264-4.106-6.703-5.65-7.3-2.91-1.121-16.387-5.801-20.37-7.183 4.355-9.306 10.602-23.255 19.644-44.16zm117.39 25.294c2.573 1.363 7.052 3.473 12.716 6.004-1.796 4.803-4.041 10.608-6.116 15.669-1.21-.252-2.686-.364-4.355-.364-4.985 0-11.594.941-17.236 1.746-3.925.555-7.632 1.084-8.793.95-2.13-.228-5.023 2.164-9.55 6.166-2.399 2.118-6.412 5.665-7.441 5.375-3.044-.849-15.555-2.658-20.414-3.008l17.444-74.549c19.148 20.255 37.495 38.704 43.745 42.01zm-26.74 64.835c-1.45-6.814-4.024-17.187-6.42-18.222-1.355-.585-7.21-1.234-16.693-2.225-5.368-.56-10.895-1.14-13.734-1.603l1.914-8.189c4.322.26 17.366 2.13 20.342 2.961 2.015.57 4.873-1.847 9.373-5.818 2.776-2.455 6.565-5.813 7.934-5.66 1.442.164 4.746-.307 9.323-.958 6.82-.972 15.938-2.269 20.488-1.48-2.108 5.052-3.94 9.036-4.774 9.964-1.498 1.648-1.908 4.905-2.38 8.676-.443 3.522-.946 7.515-2.436 10.252-2.762 5.074-16.78 10.578-22.937 12.302zm-36.72 115.435a1.034 1.034 0 00-.825-.405c-.202 0-.408.06-.588.18l-14.433 9.943a3816.036 3816.036 0 01-4.114-8.569c-3.069-6.407-4.829-10.074-5.313-10.879-.203-1.45 5.425-8.65 7.832-11.724 1.396-1.785 2.294-2.942 2.814-3.714l22.381 7.168.496 16.653c.016.575.504 1.002 1.073 1.01a1.04 1.04 0 001.007-1.073l-.443-14.844 30.416 29.191-5.001 5.383h-21.177l-14.126-18.32zM353.33 420.604a1.036 1.036 0 00-1.336.58l-3.794 9.29c-3.931 1.499-34.29 13.078-37.471 14.034-1.448.432-7.389-4.653-10.942-7.694-3.78-3.235-7.046-6.026-8.894-6.533-.213-.06-.487-.084-.816-.084-4.287 0-17.72 4.773-26.017 7.884l-16.934-9.318 18.807-34.074a1.042 1.042 0 00-.285-1.338l-19.313-14.555-18.65-13.446-1.95-21.208c12.395-3.172 22.259-5.985 24.388-7.764 1.725-1.44 9.943-10.543 19.114-20.866l17.18 16.265c.129.12.282.205.452.252l28.393 7.425 36.289 24.842-9.732 15.836c-7.805-2.91-13.945-4.935-15.932-4.935h-.039c-8.582.115-30.542-1.39-32.91-3.823-2.836-2.915-18.341-24.988-18.497-25.21a1.039 1.039 0 00-1.451-.254 1.046 1.046 0 00-.252 1.453c.643.914 15.76 22.434 18.708 25.467 3.696 3.798 31.396 4.485 34.432 4.453h.028c1.782 0 7.81 2.02 15.67 4.972 2.307 3.695 9.027 14.287 10.862 15.346.544.315 1.812.846 3.566 1.582 2.908 1.218 9.628 4.034 10.507 5.274-.287 2.02-3.069 13.782-4.443 19.519l-8.738-3.372zm-22.762 53.084l-45.958-15.08a1.01 1.01 0 00-.796.06 1.034 1.034 0 00-.518.608c-.391 1.21-9.605 29.7-10.64 34.281-.786 3.468 2.91 9.245 7.098 15.362 1.054 1.544 2.05 2.997 2.3 3.58.854 2 8.092 15.753 10.909 21.093-8.142-2.097-16.6-4.275-24.444-6.3-1.327-2.781-8.42-17.574-11.612-22.601-1.593-2.51-2.538-8.983-3.37-14.692-1.237-8.49-1.878-12.244-4.079-12.244-.534 0-2.294-.09-4.522-.203-9.603-.479-16.584-.725-21.522-.725-6.27 0-9.245.394-10.12 1.204-2.06 1.905-18.421 21.364-22.082 25.721a1652.755 1652.755 0 01-10.898-10.055c13.411-16.117 34.816-41.285 37.08-42.487 2.19-1.04 25.872-5.857 41.254-8.843a.981.981 0 00.18-.052 551.61 551.61 0 015.426-2.08c.03-.005.055-.019.083-.03 12.025-4.516 24.054-8.437 26.009-7.912 1.398.386 4.954 3.424 8.092 6.109 6.446 5.514 10.528 8.818 12.89 8.103 2.982-.894 28.046-10.432 35.793-13.388l-16.553 40.57zm-21.6 64.02c-4.166-1.073-8.655-2.225-13.282-3.416-1.516-2.868-10.788-20.438-11.719-22.614-.328-.772-1.237-2.1-2.496-3.936-2.598-3.796-7.433-10.86-6.784-13.725.906-4.015 8.59-27.905 10.268-33.105l21.178 6.952c-2.475 6.56-6.918 19.653-3.89 21.895 2.655 1.965 16.282 6.223 20.438 7.498l-13.712 40.451zm-29.704 69.85c-.068.002-.131.002-.2.002-3.846 0-10.561-3.325-15.968-5.999-2.532-1.253-4.716-2.334-6.35-2.958-1.033-.394-2.284-.559-3.669-.559-2.028 0-4.341.364-6.657.865-.668-2.124-2.431-7.4-4.517-11.048-1.834-3.208-7.654-3.898-12.793-4.502-2.127-.252-5.037-.6-5.521-1.068-.271-.457-.851-2.471-1.637-5.57 4.947-3.513 30.069-21.39 32.981-24.289 2.28-.454 16.85 2.841 33.532 7.015 4.517 1.13 9.181 2.323 13.808 3.522-2.234 5.635-9.004 18.238-10.575 19.109-2.198 1.182-6.699 16.41-9.387 26.158-1.172-.427-2.212-.678-3.047-.678zm-65.22 1.576c-11.912-5.225-30.97-14.037-32.558-15.98-.424-.518.077-1.563.95-3.216 1.484-2.816 3.676-7.006-.402-11.478 2.458-3.419 11.42-16.112 12.07-20.557.341-2.34 10.539-4.486 20.123-5.214 1.913 8.575 3.81 16.818 5.286 22.656l-21.747 2.17a1.038 1.038 0 00-.93 1.142c.057.572.558.996 1.138.933l22.064-2.2c.937 3.58 1.651 5.906 2.01 6.305.895.99 2.953 1.273 6.816 1.733 4.188.495 9.92 1.174 11.232 3.47 1.916 3.355 3.605 8.342 4.29 10.487-2.125.529-4.183 1.134-5.952 1.656-1.347.397-2.513.742-3.18.884-1.49.315-11.033 3.621-21.21 7.21zm-27.3 10.622l5.303 32.601 9.948 44.81c-4.979.375-13.085 2.261-22.975 5.064l-15.18-50.47c-.79-6.117-4.727-35.21-8.429-38.702 2.94-8.583 6.45-15.98 7.789-16.356 1.04-.005 2.628.003 7.314-16.092a384.38 384.38 0 003.307-12.204c1.957 4.83 4.065 8.917 6.143 10.901 3.808 3.63 2.193 6.692.63 9.653-1.005 1.913-2.048 3.889-.718 5.515 2.13 2.605 23.625 12.272 31.296 15.67-11.454 4.049-22.834 8.132-23.751 8.46a1.045 1.045 0 00-.676 1.15zm147.248 109.969a3604.436 3604.436 0 0128.514 7.91.938.938 0 00.175.03l10.805 1.124c.17 3.454.961 16.482 3.638 27.22 1.865 7.472-6.594 10.83-14.771 14.076-4.11 1.632-7.991 3.172-10.115 5.206-5.738 5.49-15.01 49.359-16.57 56.902l-31.504-6.92 29.828-105.548zm82.303 130.17l-78.593-17.256c3.093-15.031 11.371-51.436 15.973-55.84 1.831-1.752 5.53-3.219 9.444-4.776 8.166-3.24 18.33-7.277 16.026-16.52-2.557-10.249-3.365-22.652-3.565-26.498l35.88 3.725c-2.165 5.956-11.067 30.877-11.535 39.46 0 .05.016.09.02.14.005.043-.01.087.002.137l16.348 77.428zm-.074-136.61l-4.125 17.415-36.617-3.802c-.159-3.495-.594-16.3 1.079-23.93 4.705 1.354 24.013 6.858 39.663 10.317zm-14.13 58.027c1.155-10.264 11.675-38.823 11.784-39.118.006-.022.003-.041.008-.063.009-.022.022-.036.028-.06l4.344-18.343c5.418 1.155 10.277 2.026 13.753 2.321 7.723.665 20.26-2.778 30.49-5.624.8 9.199-3.5 53.659-5.948 60.044-1.426 3.719-28.623 3.347-54.46.843zm60.101-62.967c-10.112 2.814-22.587 6.265-30.006 5.627-3.359-.287-8.116-1.141-13.446-2.28l14.85-62.695 37.934 9.19a12841.84 12841.84 0 00-4.051 24.038c-.468 1.48-5.99 19.1-5.28 26.12zm11.774-64.27c-.337 1.807-1.15 6.523-2.091 12.048l-17.953-4.348 3.017-22.88 16.16-11.925c-1.517 5.353-2.653 9.475-2.933 10.783-.577 2.699.674 5.564 1.884 8.334 1.174 2.688 2.39 5.468 1.916 7.989zm-34.2-21.141l4.238-17.886c16.305 5.406 16.99 4.081 17.389 3.274.46-.923 1.65-6.205 3.413-14.153.764-3.445 1.427-6.423 1.72-7.548.596-1.133 7.804-1.751 15.765-1.39-2.21 7.54-5.607 19.19-8.256 28.46l-18.284 13.49-15.984-4.247zm-5.693 24.032l5.212-22.002 15.53 4.125-2.93 22.193-17.812-4.316zm50.213-68.539l-1.39 4.746a110.07 110.07 0 00-5.689-.162c-5.915 0-12.045.613-12.693 3.08-.307 1.165-.972 4.157-1.739 7.627-1.04 4.685-2.568 11.571-3.12 13.328h-.028c-1.848 0-8.883-1.973-15.144-4.037l9.198-38.813 30.605 14.231zm644.504 76.944a1.042 1.042 0 00-1.796-1.051c-1.254 2.154-30.75 52.887-31.273 64.072-.112 2.381-.72 5.485-1.626 8.922-2.1.378-9.133 1.431-12.87-.722-3.046-1.76-5.36-.028-7.218 1.36-1.804 1.352-2.809 2.014-4.17 1.103-3.446-2.307-12.104-8.835-14.763-10.85 11.087-16.376 21.074-31.29 27.88-41.446 3.952-5.9 6.807-10.167 7.919-11.787 1.275-1.859 2.447-5.348 3.52-9.88.008-.044.025-.083.027-.129 5.369-22.847 8.158-71.96 8.295-74.445a1.043 1.043 0 00-.98-1.1c-.022 0-.038-.003-.057-.003-.55 0-1.008.433-1.04.988-.02.372-1.101 19.39-3.135 39.31l-18.55-9.21 16.924-34.484a1.046 1.046 0 00-.474-1.396 1.04 1.04 0 00-1.393.476l-17.383 35.418a1.045 1.045 0 00.473 1.393l20.173 10.02c-1.207 11.464-2.732 23.008-4.55 31.273-6.38-3.935-35.147-21.626-43.663-25.811 6.346-8.988 35.333-56.193 36.625-58.295a1.043 1.043 0 00-.884-1.587c-.35 0-.693.175-.89.495a5776.43 5776.43 0 01-21.177 34.197l-25.785-17.869c2.47-5.566 4.758-10.372 5.766-11.503.996-1.127 5.967-.279 9.597.337 5.223.887 9.735 1.658 11.503-.337 2.79-3.147 8.407-12.042 8.645-12.42a1.043 1.043 0 00-.878-1.598c-.345 0-.682.173-.882.485-.057.09-5.765 9.127-8.442 12.148-.997 1.128-5.968.282-9.598-.336-5.226-.89-9.735-1.656-11.506.336-2.464 2.781-10.348 21.788-12.97 28.21a1112.434 1112.434 0 01-9.633-15.48c-.017-.033-.022-.072-.047-.099-.008-.014-.022-.02-.033-.03a1752.713 1752.713 0 01-21.169-35.593 1.062 1.062 0 00-.167-.216l-11.544-11.517a1.035 1.035 0 00-1.355-.098l-50.45 37.547-10.06-10.638 66.71-52.096a1.048 1.048 0 00.181-1.467 1.048 1.048 0 00-1.462-.18l-67.18 52.464-34.75-11.133 17.618-21.498c.011-.014.011-.027.022-.038.008-.011.022-.017.033-.03l16.29-23.565 15.771 12.1a1.042 1.042 0 001.481-.222l18.594-26.079c1.631-2.502 15.737-24.306 15.023-30.779-.673-6.136-16.26-47.552-17.928-51.967.936-3.399 8.927-32.42 16.524-61.472 16.408-62.723 15.11-64.414 14.413-65.323-2.842-3.697-29.702-20.45-40.028-23.772a1.046 1.046 0 00-1.311.673c-.176.55.126 1.136.676 1.314 10.487 3.372 36.2 19.749 38.935 22.965 1.008 5.14-17.815 76.505-30.986 124.23-22.19-9.71-54.89-24.347-56.915-26.153-2.852-2.534-30.471-34.525-30.753-34.848a1.033 1.033 0 00-.786-.361 1.045 1.045 0 00-.788 1.727c1.141 1.322 27.99 32.418 30.942 35.045 2.91 2.589 50.887 23.624 58.164 26.807 1.713 4.543 17.136 45.588 17.771 51.363.534 4.852-10.41 22.847-14.673 29.371l-17.944 25.171-14.993-11.506 16.072-23.246a1.046 1.046 0 00-.263-1.45 1.041 1.041 0 00-1.448.265l-32.984 47.703L886.995 527c16.935-20.559 33.896-45.847 35.082-47.623a1.044 1.044 0 00-.863-1.623 1.04 1.04 0 00-.867.462c-7.29 10.91-21.58 31.17-35.12 47.621-2.255-1.579-9.039-6.34-13.545-9.73-2.768-2.076-2.119-6.313-1.601-9.715.44-2.876.82-5.361-1.07-6.172-4.493-1.926-38.67-22.27-38.906-26.353 2.89-4.283 21.221-34.07 22.004-35.34a1.049 1.049 0 00-.34-1.437 1.05 1.05 0 00-.547-.154c-.35 0-.69.176-.887.496-.192.312-19.272 31.32-21.996 35.322-.23.339-.457.92-.216 1.743 1.91 6.55 38.552 26.99 40.071 27.642.406.172.003 2.81-.17 3.936-.571 3.744-1.354 8.87 2.407 11.702 4.421 3.326 11.021 7.962 13.466 9.67-11.186 13.43-21.676 23.936-27.036 23.996-7.427.085-49.97-.189-91.306-.487v-29.654c9.986-4.225 39.212-16.957 40.244-21.577a1.664 1.664 0 00-.384-1.513c-.826-.92-4.412-3.941-9.844-8.515-7.87-6.628-18.648-15.704-27.468-23.832-14.571-13.433-14.81-16.145-14.711-16.55 1.456-4.138 25.453-27.043 41.227-41.427.419-.38.457-1.027.087-1.454l-17.355-20.154 11.242-11.24a1.047 1.047 0 000-1.475 1.04 1.04 0 00-1.473-.003l-11.52 11.526c-5.708-1.273-19.587-4.17-27.384-4.174-2.598 0-4.514.323-5.234 1.13-.887 1.005-2.674 3.118-4.938 5.795-4.925 5.818-11.67 13.79-16.108 18.566-3.318 3.575-6.876 3.432-10.643 3.282-3.09-.123-6.285-.255-9.07 1.913-5.108 3.971-12.641 13.325-9.466 17.828 2.33 3.306 16.603 18.186 18.43 20.083l-12.952 12.956-16.68-14.287a1.034 1.034 0 00-.676-.249 1.041 1.041 0 00-.673 1.834l25.47 21.82-2.007 44.521-24.26 5.687H655.86l1.394-11.831a1.041 1.041 0 00-2.067-.244l-1.443 12.248-19.25 3.859 18.922-38.89 25.91-3.252c.572-.074.977-.594.906-1.166a1.038 1.038 0 00-1.16-.903l-25.303 3.174V461.96l25.85 4.59a1.037 1.037 0 001.207-.846 1.041 1.041 0 00-.84-1.207l-27.077-4.808a1.031 1.031 0 00-.848.227 1.047 1.047 0 00-.373.8v11.581h-10.087c-.575 0-1.04.468-1.04 1.046 0 .575.465 1.043 1.04 1.043h10.087v10.662l-29.877 3.75c1.4-7.658 3.75-18.958 4.84-20.494.548-.766 2.672-2.591 4.92-4.52 4.418-3.8 10.47-8.997 12.778-12.99 3.28-5.679 10.238-16.019 15.434-21.232a1.044 1.044 0 00-.739-1.78 1.03 1.03 0 00-.734.307c-5.628 5.644-12.655 16.279-15.762 21.66-2.13 3.686-8.027 8.75-12.33 12.45-2.653 2.277-4.566 3.924-5.259 4.896-1.604 2.25-4.265 16.226-5.206 21.394l-8.848-4.177a1.044 1.044 0 00-1.385.5 1.05 1.05 0 00.498 1.389l10.074 4.75c.017.009.033.009.052.014.05.022.099.028.15.036.102.025.2.041.302.036.022-.003.044.01.068.008l6.866-.862c-.775 3.429-2.256 7.559-3.772 8.052-1.164.38-5.371-.822-8.752-1.788-6.03-1.724-9.516-2.638-10.953-1.368-2.078 1.84-11.733 16.106-12.825 17.73a1.049 1.049 0 00.276 1.45c.48.323 1.126.194 1.449-.282 4.237-6.278 11.056-16.076 12.477-17.335.887-.515 5.97.944 9.006 1.811 5.098 1.456 8.309 2.3 9.962 1.768 3.148-1.023 4.79-7.712 5.316-10.315l21.235-2.665-19.006 39.068-33.102 5.003c-.197.03-.383.115-.531.25l-13.545 11.918c-1.958-2.425-7.619-9.404-9.839-11.842-.37-.405-.879-.619-1.462-.619-2.869 0-8.267 5.676-15.579 13.695-2.228 2.444-4.741 5.206-5.483 5.696-.988-.022-4.752-1.987-18.673-14.32-.624-.55-1.084-.96-1.333-1.174-2.162-1.841-15.592 1.106-23.408 3.03a1.042 1.042 0 00-.761 1.262c.134.558.7.906 1.256.763 9.259-2.277 20.146-4.239 21.597-3.443.208.187.66.586 1.27 1.125 4.815 4.267 8.472 7.346 11.278 9.56-3.928 6.566-9.682 16-10.613 17.059-1.38 1.565-.854 11.49-.348 17.997-5.951.145-12.537.903-18.56 3.6-14.498 6.488-28.037 1.08-28.172 1.026l-19.455-9.048-4.295-32.41a1.042 1.042 0 00-.772-.873l-24.06-6.224 10.936-35.365 11.4-23.964c6.28.654 38.387.813 42.239.83h.003a1.04 1.04 0 001.04-1.04 1.04 1.04 0 00-1.035-1.046c-14.572-.063-36.294-.318-41.574-.767 3.583-14.841 9.209-37.174 11.037-42.128l21.306 15.814a1.038 1.038 0 001.457-.217 1.049 1.049 0 00-.217-1.458l-21.347-15.847c3.748-3.886 16.89-18.049 17.507-18.714l28.59-30.56 24.276 47.884c.104.208.277.375.49.474.94.435 12.91 5.988 24.775 11.467l-17.797 20.316a1.044 1.044 0 00.099 1.472c.43.38 1.087.337 1.467-.096l18.204-20.78c10.195 4.704 19.845 9.135 21.816 9.967 4.144 1.749 9.92-2.959 13.745-6.07.815-.665 1.522-1.24 2.036-1.604.274-.192 27.274-19.429 28.194-25.165.67-4.188-4.583-8.767-8.804-12.445-1.309-1.144-2.44-2.126-3.126-2.885-1.963-2.15-.134-7.685.733-9.636a.83.83 0 00.044-.115c1.66-5.334 4.509-8.908 8.473-10.619 7.377-3.188 17.23.624 22.447 3.18a13.247 13.247 0 004.104 1.218c.243.446.457.86.63 1.21 3.37 6.815 7.79 12.964 7.834 13.025a1.04 1.04 0 001.454.235c.465-.337.57-.988.232-1.456-.043-.06-4.366-6.079-7.654-12.73a6.246 6.246 0 01-.095-.19 13.248 13.248 0 005.483-1.465l37.4-19.494c.016-.009.024-.022.04-.03.011-.006.022-.006.033-.014 3.934-2.483 8.92-11.563 14.821-26.964 3.307 3.744 11.328 12.289 15.295 11.837 4.243-.47 16.08-2.756 16.583-2.852a1.04 1.04 0 00.824-1.22 1.033 1.033 0 00-1.22-.827c-.121.022-12.256 2.365-16.417 2.825-2.489.293-9.658-6.68-14.224-11.971 3.909-10.439 6.772-19.829 6.802-19.924.378-1.117 3.671-11.29-.304-14.834-3.328-2.97-30.75-20.754-35.85-24.054l7.54-15.34c4.155.003 27.251.013 29.214 0 .84-.006 1.886-.014 19.767-25.056 8.692-12.17 17.227-24.497 17.312-24.618a1.06 1.06 0 00.17-.783l-6.058-33.047-8.897-32.935c5.004-1.746 8.664-3.04 10.145-3.596 8.03-3.022 22.724 2.301 24.725 5.17 1.906 2.73 6.346 16.702 7.895 21.853.164.553.745.868 1.295.698a1.04 1.04 0 00.698-1.297c-.233-.772-5.694-18.89-8.182-22.45-2.086-2.986-12.237-6.938-20.715-6.938-2.349 0-4.563.3-6.45 1.01-1.478.555-5.146 1.852-10.158 3.601-2.056-4.004-11.232-21.886-12.757-24.938-.572-1.147 2.47-4.39 4.481-6.538 2.494-2.663 4.692-5.014 4.725-6.968 3.844-1.935 23.088-11.62 26.496-13.348.37-.186.857-.583 1.07-1.407 1.479-5.714-14.103-30.573-14.262-30.81-2.335-3.455-26.959-14.26-32.943-16.852-9.502-27.773-26.28-76.204-27.238-78.966a1.04 1.04 0 10-1.963.687c.233.673 17.353 50.098 27.072 78.498L690.397 62.77c.016-5.772.068-26.046.07-46.34.004-13.93-.018-25.04-.062-33.017-.082-15.77-.082-15.77-.97-16.066a1.047 1.047 0 00-.328-.054 1.046 1.046 0 00-.996 1.346c.378 3.361.276 69.494.202 95.382-4.982 6.103-13.044 16.306-13.041 18.405.003 3.596-.104 20.882-.134 25.313h-23.05c.504-13.815.764-26.323.652-29.508-.11-3.014 4.434-6.309 9.244-9.796 6.94-5.033 15.576-11.295 15.366-20.362-.34-14.727 0-79.08.005-79.73a1.045 1.045 0 00-1.037-1.05h-.006c-.572 0-1.037.465-1.04 1.037-.003.5-.208 39.161-.142 63.465h-58.6l-1.442-63.482a1.045 1.045 0 00-1.04-1.02h-.025a1.045 1.045 0 00-1.018 1.067l1.467 64.477v.003l.61 26.744a1.042 1.042 0 001.04 1.019h.023a1.04 1.04 0 001.015-1.065l-.58-25.655h58.555c.022 6.166.066 11.232.134 14.24.184 7.97-7.618 13.629-14.506 18.621-5.502 3.99-10.252 7.436-10.104 11.56.142 4.02-.131 16.194-.627 29.435h-17.394c-.427-.024-48.571-2.61-62.943-3.637-11.35-.813-54.723-18.009-79.601-29.074l9.08-18.632a1.04 1.04 0 00-.014-.947c-.112-.205-5.99-11.314-11.692-22.08l18.572-7.604c4.47 2.74 7.364 5.518 7.238 6.982-.239 2.794-.014 19.174-.003 19.872.008.572.473 1.03 1.04 1.03h.014a1.04 1.04 0 001.026-1.06c0-.17-.232-16.971-.002-19.661.273-3.175-4.788-6.834-8.18-8.914V9.949a1.04 1.04 0 00-1.04-1.04 1.04 1.04 0 00-1.043 1.04V23.9l-18.599 7.616c-4.571-8.64-8.8-16.637-9.54-18.052-1.172-2.359-1.399-32.33-1.265-50.667a1.041 1.041 0 00-1.037-1.05h-.006c-.57 0-1.035.462-1.04 1.036-.052 7.598-.235 43.981 1.232 50.766l-31.673 24.27c-28.459-29.492-64.224-69.565-64.77-70.175a1.037 1.037 0 00-1.47-.085 1.043 1.043 0 00-.081 1.473c.547.613 3.08 3.453 6.997 7.805-8.295 19.935-18.369 43.776-27.764 65.51-4.262-2.73-18.465-11.728-23.48-13.778l6.54-14.815a1.041 1.041 0 00-.528-1.374 1.012 1.012 0 00-.422-.093c-.4 0-.78.233-.952.622l-6.702 15.178c-5.554-.394-29.2.047-30.263.069a1.05 1.05 0 00-.753.339 1.048 1.048 0 00-.265.78l1.32 17.42h-44.195l-16.59-57.838a1.034 1.034 0 00-1.286-.714 1.04 1.04 0 00-.711 1.289l16.526 57.627-26.028 8.53a1.043 1.043 0 00.648 1.982l25.957-8.506 22.875 79.765a9126.869 9126.869 0 01-24.252-1.792c-.027-.003-.052-.003-.079-.003a1.043 1.043 0 00-.077 2.083c1.758.131 42.95 3.237 46.231 3.248h.025c.761 0 2.338 2.723 3.38 4.522 2.169 3.74 4.63 7.983 8.268 8.385 2.773.307 9.286.786 15.582 1.251 6.277.462 12.768.941 15.185 1.223 3.383.405 5.157-4.433 7.049-9.54 1.065-2.88 2.674-7.226 3.882-7.226 1.661 0 4.944 2.513 7.843 4.732 3.145 2.406 6.383 4.875 9.178 5.742l-5.69 32.281c-.042.195-4.345 21.887-4.745 23.584-.342 1.453 1.404 2.608 6.51 5.739 2.784 1.708 7.966 4.882 8.152 6.103.438 2.863-3.403 23.17-4.744 25.094-.008.008-.016.028-.025.036a1.119 1.119 0 00-.136.18c-1.298 1.793-3.504 10.091-5.385 17.921-6.326-13.495-13.39-28.835-13.91-30.997-.257-1.07-.736-3.06-34.366-13.167-.764-.23-1.53-.457-2.294-.684-.619-5.255-5.924-23.34-6.162-24.15a1.044 1.044 0 00-.758-.723l-34.189-8.06a1.04 1.04 0 00-.991.298l-23.403 24.616-41.92-10.16 8.27-39.01 19.952 2.788-3.22 18.03a6.979 6.979 0 01-4.125 5.206l-5.27 2.264a1.04 1.04 0 00-.544 1.368c.224.528.837.777 1.366.547l5.27-2.26a9.07 9.07 0 005.354-6.758l3.233-18.11 27.84 3.895a1.043 1.043 0 00.288-2.066l-49.708-6.949 8.12-38.316 25.242 4.7a1.044 1.044 0 00.38-2.053l-25.65-4.773-45.442-127.4a1.043 1.043 0 00-1.963.703l26.29 73.7c-4.38-.073-17.095-.358-20.4-1.138-1.398-.328-4.973-4.472-8.13-8.126-5.113-5.92-10.862-12.58-15.288-13.667l-5.88-51.24a1.044 1.044 0 00-1.035-.922c-.039 0-.08 0-.118.006a1.043 1.043 0 00-.917 1.155l5.812 50.64-20.13-3.496c-.005-.002-.007-.002-.01-.005h-.014l-24.9-4.324c1.248-7.4 4.287-41.305 4.424-42.84a1.047 1.047 0 00-.945-1.133c-.033-.003-.063-.003-.096-.003-.53 0-.985.408-1.034.95-1.235 13.82-3.784 40.719-4.583 43.592-.17.605-.542 2.012-1.06 3.955-2.241 8.451-9.071 34.164-10.613 36.178-1.735 2.266-9.066 13.98-11.24 17.461L7.51 23.764a1.035 1.035 0 00-1.456.211 1.047 1.047 0 00.214 1.462l78.347 58.456c-.394 2.625-2.064 13.118-4.44 19.311-1.799 4.697 3.887 7.73 8.905 10.406 3.874 2.066 7.881 4.2 7.342 6.363-1.475 5.914-8.25 29.736-12.863 38.346-3.337-1.993-14.61-8.709-17.312-10.064-.395-.2-2.02-.287-4.588-.287-5.196 0-14.266.359-24.925.898h-.011l-.014.002c-26.85 1.358-63.77 3.846-74.293 4.565a1.038 1.038 0 00-.966 1.112c.038.574.536 1.01 1.106.971a5990.305 5990.305 0 0135.053-2.296c-.08 2.983-.257 10.904.033 13.088.101.76-2.874 3.027-4.306 4.116-2.913 2.214-4.698 3.65-4.698 5.205 0 2.034 1.457 13.433 1.936 17.147-10.72.238-23.381.563-23.578.569-.945.066-89.78 6.292-100.056 6.292-9.797 0-49.6-17.33-56.321-20.696-5.7-2.86-40.57 13.353-47.501 16.634a1.043 1.043 0 00.89 1.886c15.696-7.425 41.982-18.52 45.68-16.654 5.037 2.524 46.505 20.915 57.252 20.915 10.35 0 96.492-6.037 100.154-6.294.173-.003 13.192-.34 23.992-.578l30.894 70.1c-5.064 5.528-37.838 45.407-43.646 52.482l-23.57-30.35a1.024 1.024 0 00-1.008-.385c-.408.074-30.542 5.556-47.673 8.522h-.008c-5.981 1.038-10.383 1.766-11.371 1.848l-.047.002c-2.677 0-27.32-9.737-45.34-16.856-6.836-2.701-13.434-5.31-18.709-7.343-.005 0-.008-.002-.014-.005-3.452-1.33-6.34-2.417-8.335-3.117-13.688-4.806-104.357-34.389-105.27-34.687a1.044 1.044 0 00-.643 1.984c.913.296 91.557 29.875 105.226 34.67 1.938.68 4.73 1.73 8.072 3.02 2.522 2.465 30.209 29.532 34.668 31.938 1.588.857 2.86 5.873 3.594 9.111-6.54.542-38.177 3.12-42.108 2.802-5.19-.421-12.113 7.431-13.2 12.201-1.043 4.58-3.384 33.683-3.482 34.917-.047.575.38 1.078.955 1.125a1.046 1.046 0 001.12-.958c.025-.301 2.428-30.187 3.436-34.618.971-4.27 7.273-10.89 11.012-10.587 4.203.323 36.743-2.331 42.722-2.827.093.42.183.835.274 1.254 1.593 7.376 2.732 11.924 5.122 12.893 3.651 1.483 23.944 9.442 28.574 11.257a1684.613 1684.613 0 01-8.051 21.164l-7.586-3.238h-.006l-20.435-8.717a1.006 1.006 0 00-.408-.082 1.043 1.043 0 00-.97.66c-9.95 25.42-14.85 38.885-14.568 40.018.208.84 2.776 4.45 12.489 17.557 2.986 4.034 6.074 8.202 6.356 8.703.54 1.573 3.258 25.753 5.059 42.629-10.318-3.802-22.259-8.818-24.454-12.075-4.158-6.166-31.2-30.784-40.868-35.631-9.428-4.727-83.905-8.016-87.07-8.156h-.046c-.555 0-1.015.438-1.037.996a1.04 1.04 0 00.993 1.09c.772.032 77.195 3.407 86.229 7.936 9.198 4.61 36.105 29.05 40.074 34.933 4.232 6.273 34.498 16.082 37.934 17.18a1.042 1.042 0 10.63-1.987c-2.503-.8-6.157-2.028-10.206-3.493-1.426-13.405-4.648-43.03-5.415-44.427-.31-.572-2.444-3.459-6.51-8.94-4.495-6.069-11.212-15.136-12.091-16.753.512-2.674 8.653-24.01 14.049-37.818l18.59 7.929c-1.35 3.478-7.72 17.584-11.812 26.52a1.043 1.043 0 00.531 1.39l19.855 8.651-8.689 25.144c-.18.52.077 1.092.586 1.302l14.208 5.893a1.042 1.042 0 10.797-1.927l-13.302-5.517 8.314-24.06 13.796 6.013a1.038 1.038 0 001.37-.542 1.04 1.04 0 00-.54-1.371l-13.942-6.076 4.889-14.15a1.047 1.047 0 00-.643-1.327 1.049 1.049 0 00-.34-.055 1.04 1.04 0 00-.985.701l-4.837 13.996-18.733-8.161c7.73-16.892 10.446-23.162 11.35-25.625l33.162 14.144c21.552 9.037 29.045 11.97 31.796 12.86-10.917 30.716-21.397 60.129-22.273 62.351l-.005.014c0 .003-.003.005-.006.01-.476 1.295-4.522 1.64-7.476 1.89-3.54.3-6.657.568-8.133 1.997l-20.175-9.22a1.04 1.04 0 00-1.377.517 1.042 1.042 0 00.515 1.382l20.027 9.15c-.832 2.345-1.908 6.73-3.036 11.346-1.073 4.385-2.182 8.917-2.934 10.948-.236.64-.359 1.516-.395 2.567-1.442 1.404-13.873 2.006-16.285 1.658-1.1-.158-5.787-2.87-8.763-4.745a1.04 1.04 0 00-1.109 1.765c1.063.668 5.752 3.59 8.364 4.66l-7.55 19.725a3.022 3.022 0 001.385 3.736l4.681 2.52-6.704 18.504h-17.764a1.043 1.043 0 000 2.089h18.495c.435 0 .826-.277.977-.687l2.212-6.112c1.407.397 4.602 1.78 7.44 3.153l.348 18.69a1.047 1.047 0 001.062 1.024 1.046 1.046 0 001.021-1.065l-.358-19.328a1.043 1.043 0 00-.586-.92c-2.321-1.138-5.992-2.86-8.22-3.497l7.322-20.209 15.91 6.284c-1.275 4.806-2.847 15.146-3.219 17.664-.093.295-.11.569-.09.79.197 2.157.917 13.83 1.691 26.685-22.291 1.705-40.887 3.2-42.762 3.35l-36.543 3.541c-.76-5.818-4.577-35.21-4.577-38.871 0-2.904 9.885-28.318 16.529-44.687a1.046 1.046 0 00-.964-1.437c-.41 0-.802.243-.966.648-1.708 4.21-16.68 41.23-16.68 45.476 0 3.826 3.79 33.006 4.583 39.074l-22.666 2.195a1.047 1.047 0 00-.942 1.01c-.055 2.071-1.372 50.84.033 56.294.698 2.712 6.572 28.46 12.168 53.094l-21.796 5.241-3.14-10.939-3.556-12.4a1.043 1.043 0 00-1.224-.731l-5.02 1.108v-29.114a3.9 3.9 0 011.642-3.18l3.51-2.488a1.044 1.044 0 00-.602-1.894 1.04 1.04 0 00-.6.191l-3.51 2.488a5.994 5.994 0 00-2.523 4.883v29.574l-20.398 4.502a1.038 1.038 0 00-.79 1.24l2.017 9.223-5.366 1.514c-.648-1.831-2.121-5.671-3.463-7.015-.276-.28-.585-.588-4.462-.588-4.273 0-12.869.375-30.526 1.587a2961.32 2961.32 0 00-33.022 2.474 1.046 1.046 0 00-.959 1.122c.05.575.532 1.007 1.126.955 24.955-2.025 62.88-4.72 66.5-3.938.98 1.16 2.38 4.696 3.104 6.848v31.963l-69.872 12.587a1.041 1.041 0 00-.84 1.21 1.04 1.04 0 001.206.843l69.73-12.56 5.489 26.821-75.607 15.351a1.042 1.042 0 00-.813 1.23c.112.566.66.932 1.223.815l91.32-18.542c.009-.003.014-.009.023-.009.008-.002.016 0 .021-.002l30.86-7.639 7.646 25.94c.036.123.096.24.173.34l43.956 57.374-52.993 46.748-51.134-53.614a1.033 1.033 0 00-1.47-.033 1.045 1.045 0 00-.033 1.475l51.071 53.554-29.012 25.595a1.04 1.04 0 00-.093 1.47 1.035 1.035 0 001.467.093l29.078-25.65 30.19 31.658a1.042 1.042 0 001.506-1.44l-30.13-31.597 101.392-89.448 54.585-21.093c.857 9.97 2.825 18.69 6.8 20.682 5.872 2.94 36.138-6.902 72.128-19.086 9.68-3.276 18.141-6.14 23.115-7.592l33.923 151.853c.126.564.685.912 1.243.791.561-.126.915-.684.789-1.245l-33.95-151.971c5.474-1.582 17.7-5.898 33.03-11.314 11.355-4.015 24.528-8.668 37.73-13.178-1.978 10.794-12.496 68.262-14.984 83.238-2.754 16.558-.129 90.357-.017 93.49a1.042 1.042 0 102.083-.074c-.03-.766-2.731-76.724-.013-93.074.955-5.75 3.099-17.781 5.486-31.025l39.392 10.707a1.043 1.043 0 001.278-.739l11.362-42.657c.021-.084.032-.175.032-.265V704.29c9.866-2.808 17.915-4.688 22.793-5.046-.586 7.619-3.838 49.49-5.004 58.226-1.358 10.156 39.8 19.317 48.065 21.052a1.043 1.043 0 00.427-2.042c-18.402-3.862-47.28-12.362-46.431-18.736 1.188-8.876 4.495-51.568 5.037-58.563 16.825.366 86.666 18.783 127.74 29.995l-29.855 105.648-24.89-5.463 6.787-30.083a1.04 1.04 0 00-.83-1.256l-42.79-7.748a1.04 1.04 0 00-1.21.84 1.041 1.041 0 00.838 1.21l41.722 7.556-6.55 29.035-45.56-10.003a1.042 1.042 0 00-.446 2.036l46.561 10.222.003.003 59.45 13.055-12.212 50.807a1.043 1.043 0 002.026.49l12.22-50.851 79.522 17.458 7.046 33.362c.118.564.663.925 1.232.805.564-.12.923-.673.805-1.237l-7.178-33.994c-.003 0-.003-.003-.003-.003l-16.395-77.647c3.827.353 14.843 1.308 25.957 1.705 28.375 1.01 29.743-2.559 30.26-3.905 2.62-6.834 6.97-52.099 6.031-61.355 6.351-1.763 13.537-3.681 14.958-3.046v.517c-.066 24.941.783 106.874 14.394 114.022 13.32 6.993 26.441 24.208 25.732 46.899a1.046 1.046 0 001.008 1.076c.561.027 1.057-.436 1.073-1.01.736-23.595-12.954-41.518-26.847-48.815-6.113-3.21-9.762-26.284-11.642-54.808 3.46.247 12.606.783 15.368-.142 3.512-1.177 3.129-11.872 2.798-16.418a1.042 1.042 0 00-1.114-.964 1.039 1.039 0 00-.961 1.117c.509 7.064-.15 13.873-1.383 14.286-2.22.742-10.747.315-14.845.02-1.1-17.612-1.547-37.134-1.5-55.257v-.654c0-.594-.255-1.12-.723-1.476-1.79-1.36-6.726-.167-16.617 2.57-.388-5.706 3.576-19.727 5.256-24.993.014-.049.028-.095.036-.147.052-.326 5.475-32.706 6.499-38.182.588-3.15-.756-6.23-2.056-9.207-1.128-2.583-2.193-5.02-1.758-7.064.931-4.348 12.015-42.133 14.025-48.973 3.665 1.232 15.666 4.407 28.732-1.442.052-.025.107-.044.156-.068 1.391 5.498 7.241 28.154 10.537 33.408 3.455 5.515 4.993 20.85 4.539 22.672-.413 1.67 1.344 2.704 22.494 10.833 8.336 3.205 18.713 7.192 19.743 8.29 1.108 1.412.755 14.234-.214 25.296a1.041 1.041 0 00.945 1.13 1.048 1.048 0 001.128-.946c.462-5.283 1.762-22.018.09-26.181l6.729-15.855c.054-.128.082-.268.082-.407v-12.261l22.47-1.325a1.041 1.041 0 00.974-1.103 1.039 1.039 0 00-1.098-.98l-22.346 1.32v-33.907h20.468l26.688-1.1c1.29 1.66 6.039 7.786 7.046 9.119.518 2.268.225 23.43-.098 37.114h-30.937a1.042 1.042 0 000 2.085h31.952a1.04 1.04 0 001.04-1.015c.614-25.094.545-38.324-.21-39.323-.67-.898-4.287-5.572-6.239-8.087l17.057-.704 2.067 10.436 3.63 82.13c.025.575.559 1.01 1.084.993a1.039 1.039 0 00.994-1.086l-1.914-43.344h18.342a1.04 1.04 0 001.037-1.15c-.679-6.68-1.516-15.276-2.135-22.165l18.664-.15h20.928l3.95 38.931-19.414.83-19.463 2.085c-.542.057-.95.525-.931 1.073l.821 23.496c.022.577.542 1.029 1.079 1.004a1.035 1.035 0 001.002-1.078l-.786-22.524 18.434-1.976 40.36-1.725 2.545 26.326c.052.572.55.993 1.136.939.572-.058.988-.567.934-1.139l-2.533-26.213 61.917-2.647v25.751c.063 1.536 1.574 36.707 8.664 44.564 3.795 4.207 45.358 30.067 85.52 53.213 8.902 5.128 19.702 11.256 30.824 17.351-9.28 8.824-73.316 34.268-85.59 35.144L710.966 773.39a1.036 1.036 0 00-.586-.093c-.252.033-25.22 3.336-31.308 3.358-3.335.011-4.49 2.149-5.714 4.41-1.565 2.895-3.517 6.5-10.575 9.263-11.357 4.45-31.371 7.677-36.104 8.4l-10.666-70.444a1.043 1.043 0 00-1.185-.878c-.57.09-.961.618-.873 1.19l10.824 71.476c.082.566.61.955 1.174.873.994-.14 24.487-3.542 37.591-8.673 7.761-3.044 10.006-7.185 11.646-10.214 1.273-2.354 1.87-3.31 3.892-3.317 5.922-.022 28.238-2.937 31.265-3.337l125.775 60.318c-12.751 6.905-30.356 53.532-32.456 59.192-.2.542.074 1.141.613 1.344a1.045 1.045 0 001.339-.616c5.946-16.04 23.392-57.561 33.118-58.664l102.673 49.238a1016.23 1016.23 0 00-8.65 15.143 1.038 1.038 0 00.4 1.418 1.039 1.039 0 001.417-.4c.11-.2 3.592-6.431 8.733-15.252l18.965 9.095c.518.251 1.139.03 1.388-.49a1.045 1.045 0 00-.49-1.39l-18.81-9.021c11.449-19.574 29.954-49.95 38.807-57.6 2.51.723 4.523 1.076 5.916.977 19.023-1.36 47.43-8.49 63.321-15.893.52-.24.748-.862.504-1.382a1.04 1.04 0 00-1.385-.509c-15.697 7.313-43.776 14.358-62.588 15.704-.95.069-2.283-.12-3.972-.539 10.093-10.208 42.41-56.98 68.941-96.145 2.71 2.055 11.26 8.506 14.778 10.857 2.647 1.768 4.823.142 6.57-1.166 1.908-1.423 3.164-2.244 4.935-1.223 3.877 2.233 10.269 1.603 13.296 1.133-3.274 11.371-9.209 25.387-11.642 29.801-1.667 3.013-2.812 15.794-4.022 29.325-1.087 12.111-2.316 25.839-3.767 28.516-1.177 2.167-13.903 6.891-46.096 13.635a11.976 11.976 0 00-9.278 9.365l-9.069 44.898c-.115.564.25 1.114.813 1.229a1.042 1.042 0 001.226-.816l9.07-44.898a9.896 9.896 0 017.665-7.737c20.348-4.264 45.106-10.268 47.498-14.68 1.659-3.055 2.8-15.82 4.013-29.325.54-6.052 1.12-12.502 1.741-17.776 18.673-.745 45.465 14.562 45.736 14.721a1.044 1.044 0 001.423-.383c.285-.5.115-1.138-.383-1.423-1.109-.64-26.302-15.042-45.412-15.042-.373 0-.737.025-1.106.036.553-4.272 1.138-7.496 1.768-8.638 3.208-5.81 13.608-30.595 14.14-41.854.498-10.677 30.684-62.595 30.988-63.117z" mask="url(#j)"/><mask id="l" fill="#fff"><use xlink:href="#k"/></mask><path fill="#FFF" d="M746.637 335.815c17.314 11.785 27.246 25.447 38.743 41.266 12.634 17.379 26.951 37.073 54.195 57.14 24.205 17.83 70.184 44.367 118.862 72.46 18.943 10.931 38.106 21.994 56.351 32.747-22.157 17.967-128.892 104.298-164.753 129.187-19.568 13.583-82.654 15.77-148.146 15.865-8.595-63.692-15.877-120.073-17.388-139.045-4.079-51.11-.047-95.68-.003-96.123l.164-1.796-99.426-91.747 56.045-63.919c12.163 3.492 72.256 21.438 105.356 43.965zm-185.75-106.759l73.93 59.13-54.927 62.649-68.711-63.405c5.765-6.7 21.725-25.283 40.107-47.005 3.299-3.897 6.496-7.685 9.6-11.369zm-67.683 51.625l-66.655 76.456c-35.886-29.875-71.87-60.3-92.946-79.398-20.474-18.553-43.458-66.193-63.94-117.605 21.169 1.018 97.8 6.93 135.205 39.813 38.434 33.789 78.079 71.051 88.336 80.734zm-270.451 133.03c22.573-29.698 94.564-111.973 108.712-128.104 21.407 19.224 55.897 48.371 90.304 77.012l-41.883 48.043-.233.613-91.408 242.383c-65.049-10.367-189.837-3.944-229.364.46-2.746.306-5.464.687-8.155 1.122 11.308-23.745 51.082-107.227 72.007-150.652 14.117-29.29 36.79-43.596 58.717-57.425 15.688-9.902 30.51-19.25 41.303-33.452zm72.776 241.225l59.807-158.58 113.943 15.397 65.388-56.377c11.404 9.114 61.29 50.865 61.29 83.584 0 34.544 6.016 125.38 7.36 145.255-30.777.164-58.243.969-78.555 3.547-58.799 7.46-121.252-7.644-176.355-20.975-18.853-4.56-36.726-8.876-52.878-11.851zm280.192-298.05l-42.437 88.052a14093.083 14093.083 0 01-87.31-71.675l66.023-75.181 63.724 58.804zm-143.58 4.901l66.38-76.139 8.13 7.502-66.28 75.471c-2.732-2.269-5.478-4.546-8.23-6.834zm-56.378 80.4l10.454-27.724 41.145-47.191c2.743 2.28 5.48 4.554 8.207 6.815l-59.806 68.1zm-7.285 19.317l72.692-82.773a13903.193 13903.193 0 0087.726 72.015L467.012 504.1l-109.043-14.737 10.51-27.859zM610.6 684.184c-1.273-18.807-7.377-110.623-7.377-145.224 0-36.499-52.117-79.867-64.115-89.364l42.198-87.557 95.807 88.406c-.709 8.93-3.517 49.679.145 95.573 1.514 18.972 8.747 75.036 17.304 138.465-12.562-.006-25.157-.082-37.495-.15-15.9-.094-31.525-.184-46.467-.148zm140.12-354.393c-31.986-21.769-86.372-38.781-104.053-43.967 16.028-17.806 68.818-76.709 74.298-85.973 3.907-4.015 39.127-13.73 67.455-21.542 39.5-10.892 80.343-22.157 92.744-30.822C904.54 131.154 984.169-43.53 987.548-50.96l-6.612-3.019C958.152-3.881 895.066 128.9 877.007 141.516c-11.374 7.948-53.422 19.544-90.515 29.774-49.612 13.682-68.651 19.364-71.753 24.81-4.224 7.409-53.586 62.775-75.081 86.64l-74.088-59.25c41.909-49.865 64.698-78.725 67.792-85.86 7.051-16.257 1.01-153.824.295-169.46l-7.254.334c2.765 60.717 5.124 155.089.296 166.225-1.772 4.08-14.643 22.628-80.957 100.987a7798.515 7798.515 0 01-39.91 46.78l-5.094-4.699c-.468-.446-46.576-44.2-91.077-83.323-41.974-36.895-126.962-41.263-142.927-41.761C235.98 74.09 211.576-10.434 211.168-11.863l-6.983 2.012c2.805 9.779 68.3 236.567 121.95 290.507-13.877 15.822-86.382 98.672-109.16 128.643-9.998 13.156-24.28 22.163-39.396 31.704-21.733 13.706-46.365 29.245-61.389 60.42-22.781 47.272-67.879 141.98-74.315 155.5-35.015 7.532-63.074 24.087-66.23 25.997-3.351 1.41-39.152 16.462-79.07 32.913-19.117-88.473-34.772-172.634-29.306-187.7 2.77-7.639 13.907-37.123 29.322-77.932 17.947-47.509 42.521-112.569 67.375-178.847 12.303-32.807 7.98-68.55 3.8-103.116-3.759-31.082-7.307-60.443 1.61-84.82 14.01-38.283 51.527-67.23 76.357-86.389C60.945-14.706 70.994-22.46 72.82-29.236l-7.013-1.9C64.619-26.729 53.294-17.99 41.3-8.74 15.809 10.93-22.716 40.649-37.444 80.91c-9.52 26.023-5.869 56.226-2.003 88.2 4.073 33.7 8.289 68.542-3.39 99.685-24.848 66.267-49.422 131.325-67.367 178.83-15.425 40.832-26.57 70.338-29.357 78.017-1.976 5.457-3.506 19.224 6.012 75.586 5.152 30.502 12.97 69.97 23.26 117.43-26.006 10.693-53.058 21.678-73.54 29.665-56.518 22.031-119.492 123.062-122.144 127.356l6.176 3.834c.637-1.032 64.347-103.253 118.605-124.409 20.21-7.879 46.797-18.668 72.475-29.226l.933 4.258c19.628 89.517 41.055 175.955 41.268 176.817l7.052-1.76c-10.28-41.411-27.255-112.558-42.396-182.134a12631.893 12631.893 0 0080.568-33.532l.49-.252c.377-.232 38.253-23.216 80.485-27.921 38.955-4.34 161.214-10.671 225.937-.734l-81.342 215.685 6.794 2.576 81.846-217.02c16.288 2.944 34.52 7.342 53.784 12.003 55.708 13.473 118.848 28.75 178.975 21.12 31.125-3.95 79.806-3.667 131.348-3.372 12.85.072 25.765.148 38.522.156 14.517 107.307 32.297 232.172 32.584 234.197l7.192-1.029c-.285-2.02-17.961-126.168-32.445-233.17 67.975-.102 130.083-2.444 151.293-17.166 37.397-25.956 151-117.996 167.297-131.22 31.205 18.506 59.218 35.932 78.035 49.996 59.177 44.233 191.907 67.004 197.53 67.95l1.204-7.181c-1.36-.23-136.626-23.425-194.387-66.601-31.355-23.438-87.496-55.84-141.789-87.174-48.494-27.99-94.304-54.427-118.183-72.014-26.337-19.4-40.301-38.612-52.623-55.561-11.404-15.688-22.176-30.508-40.537-43.004z" mask="url(#l)"/><mask id="n" fill="#fff"><use xlink:href="#m"/></mask><path fill="#C6D7D7" d="M767.759 525.26l.98-3.204 1.998.616-.98 3.205zm-71.702.565l9.494-3.481 1.459 3.995-9.491 3.484zm39.828 2.119l1.87-1.012 1.01 1.872-1.87 1.012zm-2.824-5.228l1.87-1.012 1.01 1.869-1.87 1.015zm-2.821-5.227l1.868-1.013 1.01 1.87-1.867 1.015zm15.715 4.888l2.067 6.043 2.46-.846-2.069-6.045 1.602-.548-1.14-3.33-7.629 2.619 1.14 3.33zm-36.518-7.254l4.862-1.67 1.139 3.329-4.862 1.672zm21.847 16.753l-2.565-1.949-.975 1.29-2.721-2.067-.975 1.286 2.727 2.067 2.565 1.945zm26.929 17.458h4.41V529.15h-4.41zm-42.237-29.012l3.876-1.333 2.675 7.814-3.876 1.33zm-6.212-26.849h2.601v-2.609h-2.6zm9.686.005h2.603v-2.608h-2.603zm3.301 13.69h2.6v-2.608h-2.6zm-2.88-21.393l2.494.738-.734 2.502-2.499-.742zm-4.887-1.96l-4.675-3.317 1.503-2.126 4.675 3.317zm.386 24.092h4.077v-4.084h-4.076zm-2.342-8.473h7.654v-2.869h-7.654zm33.675 7.939l.31 4.283-2.595.191-.31-4.286zm12.386 13.837l.805 4.217-6.77 1.297-.805-4.218zm-4.352-6.843l.805 4.218-2.557.49-.805-4.218zm-24.625-11.827h2.853V498h-2.853zm10.141-.157l-5.71 10.643-2.522-1.357 5.71-10.646zm-45.405 7.434h1.311v-1.314h-1.311zm75.79-63.745l1.692-1.623-3.6-3.766-1.692 1.626zm-5.165 4.963l2.067-1.987-.361-.372-2.065 1.981zm9.437 12.209l-3.241-.137.276-6.492 3.239.137.197-4.614 4.046.172.216-5.12 2.43.1-.215 5.124-.058 1.368-.572 13.523-6.48-.273zm-.519-29.325l-4.632 4.45-1.5-1.568 4.632-4.45zm-9.221 10.362l-4.631 4.453-1.5-1.568 4.632-4.453zm-4.945-12.701l11.279-11.265-1.155-1.163 5.288-5.28 1.156 1.164 2.677-2.677 2.455 2.466-19.247 19.221zm-.277-6.123h4.837v-.783h-4.837zm-8.499 6.604v-2.545h-2.322V428h2.322v-1.03h3.87v5.091zm24.503 77.099h8.064v-3.913h-8.064zm-9.891 4.973h8.065v-3.914h-8.065zm-11.946-7.565h5.685v-10.525h-5.685zm33.923 21.017h2.603v-2.609h-2.603zm7.804.002h2.604v-2.608h-2.604zm-3.144-14.572l-1.163 1.519 14.333 11.007 1.158-1.519zm-16.718 13.267h5.118v-3.216h-5.119zm-41-40.54l-1.91 2.018 9.319 8.85 1.908-2.02zm-11.332-10.762l-1.908 2.017 9.316 8.85 1.908-2.02zm-11.332-10.764l-1.908 2.017 9.316 8.851 1.908-2.02zm2.158-11.123l-2.508 2.649 4.408 4.185 2.504-2.65zm16.996 11.594l-1.885-1.795-2.27 2.397 1.89 1.793-2.506 2.652-4.785-4.544 2.505-2.652 1.514 1.435 2.267-2.398-1.512-1.434 2.026-2.143 4.785 4.543zm2.671 3.493l-1.787 1.891 9.19 8.73 1.787-1.893zm9.349-6.09l-1.91 2.016 8.436 8.014 1.908-2.02zm-6.215 1.64l-1.194 1.262 1.26 1.196 1.193-1.262zm3.29-5.436l-1.461 1.543 1.54 1.467 1.463-1.546zm9.953 14.304l-1.85 1.957 1.952 1.853 1.85-1.957zm9.368 5.512l-13.68 14.463 1.448 1.374 13.677-14.461zm-11.744 4.203l-1.375 1.45 3.149 2.992 1.371-1.45zm32.091 1.19l-14.977 15.832 1.574 1.497 14.977-15.835zm-11.434-4.273l-4.892 5.172.974.928 4.892-5.173zm.147-9.444l-.597.63 4.629 4.398-1.374 1.45-8.782-8.341-2.089 2.208.753.717-4.353 4.604-3.715-3.528 4.356-4.603 1.826 1.732 2.088-2.206-.692-.657 1.374-1.453 3.397 3.23.597-.633zm-48.666-19.802l5.538 5.263-2.92 3.09-7.053-6.697 2.924-3.09 13.485-14.256 1.511 1.431zm19.304-12.324l6.797 6.457-1.787 1.894-8.815-8.372.895-.947.895-.944 6.384-6.75 2.015 1.91zm5.764 9.07l-1.79 1.89 4.013 3.813 1.79-1.891z" mask="url(#n)"/><path fill="#C6D7D7" d="M746.8 451.7l-4.027 4.259.977.928 4.024-4.259zm2.502.58l-5.908 6.243 1.826 1.735 5.908-6.245zm3.366 3.197l-1.61 1.705 4.63 4.395 1.606-1.705zm4.232 7.911l-2.09 2.209 2.204 2.09 2.09-2.205zm14.155 18.701l-8.415 8.895 2.14 2.033 8.413-8.895zm4.563-5.963l-1.492 1.576 4.66 4.423 1.491-1.576zm-37.648-26.524l-6.444 6.812 1.702 1.615 6.442-6.812zm2.638 3.403l-4.117 4.354 2.012 1.91 4.117-4.351zm-40.1-23.512l1.43-1.861-4.12-3.183-1.43 1.858zm3.81.962l-1.509 1.962 1.958 1.514 1.51-1.963zm9.725 14.617l1.999-1.768-3.274-3.714-1.999 1.77zm7.777-18.391l2.962-1.136 1.445 3.788-2.962 1.136-.818.312-5.59 2.146-3.614-9.453 6.412-2.458zm-37.226 13.532l-11.67-9.935 4.653-5.49 11.67 9.935zm16.288.246l-2.023 2.028 8.454 8.47 2.023-2.027zm-4.56-2.569l-5.423 7.053 1.774 1.371 5.423-7.05zm-1.818 16.344l-1.111 1.445 5.565 4.3 1.111-1.448zm-2.104-2.168l-1.23 1.599 1.597 1.234 1.232-1.601zm7.817.193l-.731.952 1.856 1.432.73-.953zm-3.978 50.381l6.211 5.158 1.577-1.91-6.212-5.154zm0-8.679l6.211 5.159 1.577-1.908-6.212-5.156zm0-8.676l6.211 5.157 1.577-1.908-6.212-5.156zm0-8.678l6.211 5.156 1.577-1.907-6.212-5.156zm-5.793 49.841l1.316-1.637 2.949 2.384-1.323 1.636 2.097 1.697-1.653 2.045 2.327 1.883-.988 1.226-2.327-1.88-.622-.504-6.135-4.97 2.64-3.274zm-.781-66.778l-3.813 4.957 2.078 1.603 3.813-4.956zm.435 21.451l-.122 20.354 2.086.014-.06 9.543-2.084-.013-.03 4.833-4.435-.025.211-34.733zm-27.764-40.16l-1.854 2.184 9.11 7.757 1.854-2.187zm-5.034 14.227l-.748 4.245 18.073 3.2.75-4.246zm12.65 58.049l-1.755.079-.123-2.723 1.757-.077.093 2.121 3.447-.153.055 1.199-3.447.153zm2.772-41.069l-.153 1.549-1.643-.162-.328 3.331-3.636-.361.329-3.33-11.758-1.167.304-3.103 13.65 1.357.29-2.923 4.88.487-.44 4.47zm-7.739 16.771l4.79-.047-.019-1.828 4.788-.044.115 12.11-4.788.045-.054-5.942-4.788.046zm-3.898 46.692l-.137-4.798-1.823.055-.137-4.798 12.08-.344.138 4.797-5.927.167.137 4.798z" mask="url(#n)"/></g></g><circle cx="73" cy="52" r="28" fill="#3A77FF" fill-opacity=".364" stroke="#3573FF" stroke-width="7"/></g></svg>